<svg xmlns="http://www.w3.org/2000/svg" xmlns:xlink="http://www.w3.org/1999/xlink" width="500" zoomAndPan="magnify" viewBox="44 158 304 64" height="500" preserveAspectRatio="xMidYMid meet" version="1.0"><defs><g/></defs><g fill="#ffffff" fill-opacity="1"><g transform="translate(51.967131, 193.697346)"><g><path d="M 15.25 0 L 4.40625 0 C 3.851562 0 3.390625 -0.191406 3.015625 -0.578125 C 2.648438 -0.960938 2.46875 -1.429688 2.46875 -1.984375 L 2.46875 -26.796875 C 2.46875 -27.109375 2.492188 -27.320312 2.546875 -27.4375 L 2.6875 -27.71875 C 2.84375 -28.039062 3.070312 -28.300781 3.375 -28.5 C 3.6875 -28.695312 4.03125 -28.800781 4.40625 -28.8125 L 15.046875 -28.8125 C 16.117188 -28.8125 17.140625 -28.597656 18.109375 -28.171875 C 19.078125 -27.753906 19.929688 -27.175781 20.671875 -26.4375 C 22.210938 -24.84375 22.984375 -22.863281 22.984375 -20.5 C 22.984375 -19.375 22.753906 -18.3125 22.296875 -17.3125 C 21.847656 -16.320312 21.226562 -15.460938 20.4375 -14.734375 C 21.394531 -13.921875 22.140625 -12.957031 22.671875 -11.84375 C 23.210938 -10.738281 23.484375 -9.546875 23.484375 -8.265625 C 23.484375 -7.160156 23.269531 -6.101562 22.84375 -5.09375 C 22.414062 -4.082031 21.820312 -3.195312 21.0625 -2.4375 C 20.300781 -1.664062 19.421875 -1.066406 18.421875 -0.640625 C 17.429688 -0.210938 16.375 0 15.25 0 Z M 6.4375 -16.609375 L 15.1875 -16.609375 C 15.71875 -16.617188 16.21875 -16.726562 16.6875 -16.9375 C 17.15625 -17.144531 17.570312 -17.429688 17.9375 -17.796875 C 18.289062 -18.140625 18.566406 -18.539062 18.765625 -19 C 18.960938 -19.46875 19.0625 -19.96875 19.0625 -20.5 C 19.0625 -21.101562 18.941406 -21.695312 18.703125 -22.28125 C 18.472656 -22.863281 18.160156 -23.335938 17.765625 -23.703125 C 17.367188 -24.054688 16.90625 -24.328125 16.375 -24.515625 C 15.84375 -24.710938 15.296875 -24.8125 14.734375 -24.8125 L 6.4375 -24.8125 Z M 6.4375 -3.96875 L 15.25 -3.96875 C 15.8125 -3.96875 16.347656 -4.082031 16.859375 -4.3125 C 17.378906 -4.539062 17.828125 -4.859375 18.203125 -5.265625 C 19.003906 -6.085938 19.40625 -7.085938 19.40625 -8.265625 C 19.40625 -9.460938 19.003906 -10.484375 18.203125 -11.328125 C 17.828125 -11.734375 17.378906 -12.050781 16.859375 -12.28125 C 16.347656 -12.519531 15.8125 -12.640625 15.25 -12.640625 L 6.4375 -12.640625 Z M 6.4375 -3.96875 "/></g></g></g><g fill="#ffffff" fill-opacity="1"><g transform="translate(75.055082, 193.697346)"><g><path d="M 11.65625 0.265625 C 10.21875 0.265625 8.84375 -0.0078125 7.53125 -0.5625 C 6.21875 -1.113281 5.078125 -1.878906 4.109375 -2.859375 C 3.117188 -3.835938 2.34375 -4.976562 1.78125 -6.28125 C 1.226562 -7.582031 0.953125 -8.953125 0.953125 -10.390625 C 0.953125 -11.847656 1.226562 -13.226562 1.78125 -14.53125 C 2.34375 -15.832031 3.117188 -16.96875 4.109375 -17.9375 C 5.078125 -18.914062 6.21875 -19.679688 7.53125 -20.234375 C 8.84375 -20.785156 10.21875 -21.0625 11.65625 -21.0625 C 13.082031 -21.0625 14.445312 -20.785156 15.75 -20.234375 C 17.050781 -19.691406 18.195312 -18.9375 19.1875 -17.96875 C 20.164062 -16.988281 20.929688 -15.847656 21.484375 -14.546875 C 22.046875 -13.253906 22.335938 -11.898438 22.359375 -10.484375 C 22.359375 -9.953125 22.179688 -9.507812 21.828125 -9.15625 C 21.472656 -8.8125 21.019531 -8.640625 20.46875 -8.640625 L 5.234375 -8.640625 C 5.398438 -7.898438 5.675781 -7.21875 6.0625 -6.59375 C 6.457031 -5.96875 6.941406 -5.414062 7.515625 -4.9375 C 8.703125 -3.945312 10.082031 -3.453125 11.65625 -3.453125 C 12.382812 -3.453125 13 -3.515625 13.5 -3.640625 C 14 -3.773438 14.503906 -3.992188 15.015625 -4.296875 C 15.421875 -4.535156 15.804688 -4.65625 16.171875 -4.65625 C 16.671875 -4.65625 17.113281 -4.457031 17.5 -4.0625 C 17.882812 -3.65625 18.078125 -3.179688 18.078125 -2.640625 C 18.078125 -1.753906 17.4375 -1.039062 16.15625 -0.5 C 15.570312 -0.25 14.890625 -0.0625 14.109375 0.0625 C 13.328125 0.195312 12.507812 0.265625 11.65625 0.265625 Z M 5.125 -11.875 L 18.40625 -11.875 C 18.125 -13.476562 17.363281 -14.785156 16.125 -15.796875 C 15.53125 -16.296875 14.851562 -16.679688 14.09375 -16.953125 C 13.34375 -17.234375 12.550781 -17.375 11.71875 -17.375 C 9.988281 -17.375 8.523438 -16.84375 7.328125 -15.78125 C 6.753906 -15.289062 6.273438 -14.707031 5.890625 -14.03125 C 5.515625 -13.351562 5.257812 -12.632812 5.125 -11.875 Z M 5.125 -11.875 "/></g></g></g><g fill="#ffffff" fill-opacity="1"><g transform="translate(95.981896, 193.697346)"><g><path d="M 12.640625 0.265625 C 11.171875 0.265625 9.785156 0 8.484375 -0.53125 C 7.191406 -1.0625 6.054688 -1.804688 5.078125 -2.765625 C 4.097656 -3.742188 3.328125 -4.875 2.765625 -6.15625 C 2.210938 -7.4375 1.9375 -8.804688 1.9375 -10.265625 L 1.9375 -25.421875 C 1.9375 -25.960938 2.132812 -26.429688 2.53125 -26.828125 C 2.90625 -27.203125 3.359375 -27.390625 3.890625 -27.390625 C 4.421875 -27.390625 4.890625 -27.203125 5.296875 -26.828125 C 5.691406 -26.429688 5.890625 -25.960938 5.890625 -25.421875 L 5.890625 -21.15625 L 14.5625 -21.15625 C 15.09375 -21.15625 15.546875 -20.960938 15.921875 -20.578125 C 16.304688 -20.191406 16.5 -19.726562 16.5 -19.1875 C 16.5 -18.664062 16.3125 -18.222656 15.9375 -17.859375 C 15.570312 -17.503906 15.113281 -17.328125 14.5625 -17.328125 L 5.890625 -17.328125 L 5.890625 -10.21875 C 5.890625 -9.300781 6.0625 -8.4375 6.40625 -7.625 C 6.75 -6.820312 7.234375 -6.113281 7.859375 -5.5 C 8.472656 -4.882812 9.1875 -4.410156 10 -4.078125 C 10.820312 -3.742188 11.703125 -3.578125 12.640625 -3.578125 C 14.410156 -3.578125 15.863281 -4.101562 17 -5.15625 C 17.46875 -5.59375 17.957031 -5.8125 18.46875 -5.8125 C 18.90625 -5.8125 19.3125 -5.640625 19.6875 -5.296875 C 20.039062 -4.953125 20.21875 -4.523438 20.21875 -4.015625 C 20.21875 -3.378906 19.984375 -2.828125 19.515625 -2.359375 C 17.679688 -0.609375 15.390625 0.265625 12.640625 0.265625 Z M 12.640625 0.265625 "/></g></g></g><g fill="#ffffff" fill-opacity="1"><g transform="translate(114.507464, 193.697346)"><g><path d="M 12.640625 0.265625 C 11.171875 0.265625 9.785156 0 8.484375 -0.53125 C 7.191406 -1.0625 6.054688 -1.804688 5.078125 -2.765625 C 4.097656 -3.742188 3.328125 -4.875 2.765625 -6.15625 C 2.210938 -7.4375 1.9375 -8.804688 1.9375 -10.265625 L 1.9375 -25.421875 C 1.9375 -25.960938 2.132812 -26.429688 2.53125 -26.828125 C 2.90625 -27.203125 3.359375 -27.390625 3.890625 -27.390625 C 4.421875 -27.390625 4.890625 -27.203125 5.296875 -26.828125 C 5.691406 -26.429688 5.890625 -25.960938 5.890625 -25.421875 L 5.890625 -21.15625 L 14.5625 -21.15625 C 15.09375 -21.15625 15.546875 -20.960938 15.921875 -20.578125 C 16.304688 -20.191406 16.5 -19.726562 16.5 -19.1875 C 16.5 -18.664062 16.3125 -18.222656 15.9375 -17.859375 C 15.570312 -17.503906 15.113281 -17.328125 14.5625 -17.328125 L 5.890625 -17.328125 L 5.890625 -10.21875 C 5.890625 -9.300781 6.0625 -8.4375 6.40625 -7.625 C 6.75 -6.820312 7.234375 -6.113281 7.859375 -5.5 C 8.472656 -4.882812 9.1875 -4.410156 10 -4.078125 C 10.820312 -3.742188 11.703125 -3.578125 12.640625 -3.578125 C 14.410156 -3.578125 15.863281 -4.101562 17 -5.15625 C 17.46875 -5.59375 17.957031 -5.8125 18.46875 -5.8125 C 18.90625 -5.8125 19.3125 -5.640625 19.6875 -5.296875 C 20.039062 -4.953125 20.21875 -4.523438 20.21875 -4.015625 C 20.21875 -3.378906 19.984375 -2.828125 19.515625 -2.359375 C 17.679688 -0.609375 15.390625 0.265625 12.640625 0.265625 Z M 12.640625 0.265625 "/></g></g></g><g fill="#ffffff" fill-opacity="1"><g transform="translate(132.88022, 193.697346)"><g><path d="M 11.65625 0.265625 C 10.21875 0.265625 8.84375 -0.0078125 7.53125 -0.5625 C 6.21875 -1.113281 5.078125 -1.878906 4.109375 -2.859375 C 3.117188 -3.835938 2.34375 -4.976562 1.78125 -6.28125 C 1.226562 -7.582031 0.953125 -8.953125 0.953125 -10.390625 C 0.953125 -11.847656 1.226562 -13.226562 1.78125 -14.53125 C 2.34375 -15.832031 3.117188 -16.96875 4.109375 -17.9375 C 5.078125 -18.914062 6.21875 -19.679688 7.53125 -20.234375 C 8.84375 -20.785156 10.21875 -21.0625 11.65625 -21.0625 C 13.082031 -21.0625 14.445312 -20.785156 15.75 -20.234375 C 17.050781 -19.691406 18.195312 -18.9375 19.1875 -17.96875 C 20.164062 -16.988281 20.929688 -15.847656 21.484375 -14.546875 C 22.046875 -13.253906 22.335938 -11.898438 22.359375 -10.484375 C 22.359375 -9.953125 22.179688 -9.507812 21.828125 -9.15625 C 21.472656 -8.8125 21.019531 -8.640625 20.46875 -8.640625 L 5.234375 -8.640625 C 5.398438 -7.898438 5.675781 -7.21875 6.0625 -6.59375 C 6.457031 -5.96875 6.941406 -5.414062 7.515625 -4.9375 C 8.703125 -3.945312 10.082031 -3.453125 11.65625 -3.453125 C 12.382812 -3.453125 13 -3.515625 13.5 -3.640625 C 14 -3.773438 14.503906 -3.992188 15.015625 -4.296875 C 15.421875 -4.535156 15.804688 -4.65625 16.171875 -4.65625 C 16.671875 -4.65625 17.113281 -4.457031 17.5 -4.0625 C 17.882812 -3.65625 18.078125 -3.179688 18.078125 -2.640625 C 18.078125 -1.753906 17.4375 -1.039062 16.15625 -0.5 C 15.570312 -0.25 14.890625 -0.0625 14.109375 0.0625 C 13.328125 0.195312 12.507812 0.265625 11.65625 0.265625 Z M 5.125 -11.875 L 18.40625 -11.875 C 18.125 -13.476562 17.363281 -14.785156 16.125 -15.796875 C 15.53125 -16.296875 14.851562 -16.679688 14.09375 -16.953125 C 13.34375 -17.234375 12.550781 -17.375 11.71875 -17.375 C 9.988281 -17.375 8.523438 -16.84375 7.328125 -15.78125 C 6.753906 -15.289062 6.273438 -14.707031 5.890625 -14.03125 C 5.515625 -13.351562 5.257812 -12.632812 5.125 -11.875 Z M 5.125 -11.875 "/></g></g></g><g fill="#ffffff" fill-opacity="1"><g transform="translate(154.003506, 193.697346)"><g><path d="M 3.921875 0 C 3.367188 0 2.910156 -0.179688 2.546875 -0.546875 C 2.140625 -0.910156 1.9375 -1.367188 1.9375 -1.921875 L 1.9375 -9.90625 C 1.9375 -11.40625 2.222656 -12.832031 2.796875 -14.1875 C 3.378906 -15.550781 4.175781 -16.753906 5.1875 -17.796875 C 6.226562 -18.828125 7.421875 -19.628906 8.765625 -20.203125 C 10.109375 -20.773438 11.53125 -21.0625 13.03125 -21.0625 L 13.140625 -21.0625 C 13.773438 -21.0625 14.265625 -20.882812 14.609375 -20.53125 C 14.960938 -20.175781 15.140625 -19.710938 15.140625 -19.140625 C 15.140625 -18.585938 14.945312 -18.128906 14.5625 -17.765625 C 14.175781 -17.398438 13.703125 -17.21875 13.140625 -17.21875 L 13.03125 -17.21875 C 12.050781 -17.21875 11.125 -17.03125 10.25 -16.65625 C 9.382812 -16.28125 8.613281 -15.753906 7.9375 -15.078125 C 7.257812 -14.398438 6.726562 -13.613281 6.34375 -12.71875 C 5.96875 -11.832031 5.78125 -10.894531 5.78125 -9.90625 L 5.78125 -1.921875 C 5.78125 -1.367188 5.601562 -0.910156 5.25 -0.546875 C 4.894531 -0.179688 4.453125 0 3.921875 0 Z M 3.921875 0 "/></g></g></g><g fill="#5170ff" fill-opacity="1"><g transform="translate(167.443686, 193.697346)"><g><path d="M 4.828125 0.171875 C 4.285156 0.171875 3.828125 -0.0078125 3.453125 -0.375 C 3.085938 -0.75 2.90625 -1.195312 2.90625 -1.71875 L 2.90625 -26.875 C 2.90625 -27.40625 3.09375 -27.859375 3.46875 -28.234375 C 3.84375 -28.609375 4.296875 -28.796875 4.828125 -28.796875 L 12.96875 -28.796875 C 14.394531 -28.796875 15.75 -28.53125 17.03125 -28 C 18.320312 -27.46875 19.457031 -26.71875 20.4375 -25.75 C 21.394531 -24.8125 22.144531 -23.675781 22.6875 -22.34375 C 23.238281 -21.007812 23.515625 -19.625 23.515625 -18.1875 C 23.515625 -16.769531 23.242188 -15.425781 22.703125 -14.15625 C 22.160156 -12.894531 21.40625 -11.789062 20.4375 -10.84375 C 19.457031 -9.894531 18.316406 -9.15625 17.015625 -8.625 C 15.722656 -8.101562 14.363281 -7.84375 12.9375 -7.84375 L 6.765625 -7.84375 L 6.765625 -1.71875 C 6.765625 -1.1875 6.570312 -0.738281 6.1875 -0.375 C 5.8125 -0.0078125 5.359375 0.171875 4.828125 0.171875 Z M 6.765625 -11.671875 L 13.015625 -11.671875 C 13.941406 -11.671875 14.804688 -11.847656 15.609375 -12.203125 C 16.421875 -12.566406 17.132812 -13.0625 17.75 -13.6875 C 18.34375 -14.28125 18.796875 -14.96875 19.109375 -15.75 C 19.429688 -16.53125 19.59375 -17.34375 19.59375 -18.1875 C 19.59375 -19.03125 19.425781 -19.867188 19.09375 -20.703125 C 18.757812 -21.535156 18.300781 -22.257812 17.71875 -22.875 C 17.113281 -23.5 16.40625 -23.992188 15.59375 -24.359375 C 14.789062 -24.722656 13.9375 -24.90625 13.03125 -24.90625 L 6.765625 -24.90625 Z M 6.765625 -11.671875 "/></g></g></g><g fill="#5170ff" fill-opacity="1"><g transform="translate(188.807092, 193.697346)"><g><path d="M 11.609375 0.265625 C 10.171875 0.265625 8.8125 -0.00390625 7.53125 -0.546875 C 6.25 -1.097656 5.117188 -1.867188 4.140625 -2.859375 C 3.171875 -3.835938 2.410156 -4.972656 1.859375 -6.265625 C 1.316406 -7.554688 1.046875 -8.929688 1.046875 -10.390625 C 1.046875 -11.847656 1.316406 -13.222656 1.859375 -14.515625 C 2.410156 -15.804688 3.171875 -16.945312 4.140625 -17.9375 C 5.117188 -18.925781 6.25 -19.691406 7.53125 -20.234375 C 8.8125 -20.785156 10.171875 -21.0625 11.609375 -21.0625 C 13.046875 -21.0625 14.398438 -20.789062 15.671875 -20.25 C 16.953125 -19.71875 18.082031 -18.960938 19.0625 -17.984375 C 20.019531 -17.015625 20.769531 -15.890625 21.3125 -14.609375 C 21.863281 -13.328125 22.148438 -11.960938 22.171875 -10.515625 L 22.171875 -1.828125 C 22.171875 -1.273438 21.984375 -0.804688 21.609375 -0.421875 C 21.234375 -0.0351562 20.769531 0.15625 20.21875 0.15625 C 19.664062 0.15625 19.210938 -0.03125 18.859375 -0.40625 C 18.503906 -0.789062 18.328125 -1.265625 18.328125 -1.828125 L 18.3125 -2.140625 C 17.382812 -1.367188 16.347656 -0.773438 15.203125 -0.359375 C 14.054688 0.0546875 12.859375 0.265625 11.609375 0.265625 Z M 11.609375 -3.609375 C 12.554688 -3.609375 13.4375 -3.78125 14.25 -4.125 C 15.0625 -4.476562 15.785156 -4.972656 16.421875 -5.609375 C 17.023438 -6.234375 17.492188 -6.957031 17.828125 -7.78125 C 18.160156 -8.601562 18.328125 -9.472656 18.328125 -10.390625 C 18.328125 -11.304688 18.160156 -12.175781 17.828125 -13 C 17.492188 -13.820312 17.023438 -14.546875 16.421875 -15.171875 C 15.785156 -15.796875 15.054688 -16.28125 14.234375 -16.625 C 13.421875 -16.976562 12.546875 -17.15625 11.609375 -17.15625 C 10.679688 -17.15625 9.804688 -16.976562 8.984375 -16.625 C 8.171875 -16.28125 7.460938 -15.796875 6.859375 -15.171875 C 6.242188 -14.546875 5.765625 -13.820312 5.421875 -13 C 5.078125 -12.175781 4.90625 -11.304688 4.90625 -10.390625 C 4.90625 -9.472656 5.078125 -8.601562 5.421875 -7.78125 C 5.765625 -6.957031 6.242188 -6.234375 6.859375 -5.609375 C 7.460938 -4.972656 8.171875 -4.476562 8.984375 -4.125 C 9.804688 -3.78125 10.679688 -3.609375 11.609375 -3.609375 Z M 11.609375 -3.609375 "/></g></g></g><g fill="#5170ff" fill-opacity="1"><g transform="translate(210.825397, 193.697346)"><g><path d="M 20.953125 6.59375 C 20.410156 6.59375 19.957031 6.40625 19.59375 6.03125 C 19.238281 5.664062 19.0625 5.207031 19.0625 4.65625 L 19.0625 -3.015625 C 18.144531 -2.097656 17.117188 -1.382812 15.984375 -0.875 C 14.859375 -0.363281 13.65625 -0.109375 12.375 -0.109375 C 10.9375 -0.109375 9.566406 -0.378906 8.265625 -0.921875 C 6.972656 -1.472656 5.84375 -2.234375 4.875 -3.203125 C 3.894531 -4.179688 3.128906 -5.316406 2.578125 -6.609375 C 2.035156 -7.910156 1.765625 -9.28125 1.765625 -10.71875 L 1.765625 -19.125 C 1.765625 -19.675781 1.953125 -20.140625 2.328125 -20.515625 C 2.710938 -20.890625 3.179688 -21.078125 3.734375 -21.078125 C 4.273438 -21.078125 4.734375 -20.890625 5.109375 -20.515625 C 5.484375 -20.140625 5.671875 -19.675781 5.671875 -19.125 L 5.671875 -10.625 C 5.671875 -9.738281 5.84375 -8.894531 6.1875 -8.09375 C 6.539062 -7.289062 7.03125 -6.585938 7.65625 -5.984375 C 8.28125 -5.359375 8.992188 -4.875 9.796875 -4.53125 C 10.609375 -4.1875 11.46875 -4.015625 12.375 -4.015625 C 13.25 -4.015625 14.085938 -4.1875 14.890625 -4.53125 C 15.703125 -4.875 16.421875 -5.359375 17.046875 -5.984375 C 17.671875 -6.585938 18.160156 -7.289062 18.515625 -8.09375 C 18.878906 -8.894531 19.0625 -9.738281 19.0625 -10.625 L 19.0625 -19.125 C 19.0625 -19.675781 19.25 -20.140625 19.625 -20.515625 C 20 -20.890625 20.457031 -21.078125 21 -21.078125 C 21.488281 -21.078125 21.945312 -20.890625 22.375 -20.515625 C 22.75 -20.140625 22.9375 -19.675781 22.9375 -19.125 L 22.9375 4.65625 C 22.9375 5.207031 22.742188 5.664062 22.359375 6.03125 C 21.972656 6.40625 21.503906 6.59375 20.953125 6.59375 Z M 20.953125 6.59375 "/></g></g></g><g fill="#ffffff" fill-opacity="1"><g transform="translate(233.045245, 193.697346)"><g><path d="M 4 0 C 3.457031 0 2.992188 -0.179688 2.609375 -0.546875 C 2.234375 -0.910156 2.046875 -1.367188 2.046875 -1.921875 L 2.046875 -14.53125 C 2.046875 -15.5 2.234375 -16.414062 2.609375 -17.28125 C 2.984375 -18.15625 3.503906 -18.925781 4.171875 -19.59375 C 4.828125 -20.25 5.585938 -20.765625 6.453125 -21.140625 C 7.316406 -21.515625 8.238281 -21.703125 9.21875 -21.703125 C 10.226562 -21.703125 11.1875 -21.492188 12.09375 -21.078125 C 13 -20.671875 13.789062 -20.113281 14.46875 -19.40625 C 15.132812 -20.113281 15.921875 -20.671875 16.828125 -21.078125 C 17.734375 -21.492188 18.691406 -21.703125 19.703125 -21.703125 C 20.679688 -21.703125 21.613281 -21.515625 22.5 -21.140625 C 23.382812 -20.765625 24.171875 -20.25 24.859375 -19.59375 C 25.523438 -18.925781 26.050781 -18.148438 26.4375 -17.265625 C 26.820312 -16.390625 27.015625 -15.476562 27.015625 -14.53125 L 27.015625 -1.921875 C 27.015625 -1.367188 26.828125 -0.910156 26.453125 -0.546875 C 26.085938 -0.179688 25.640625 0 25.109375 0 C 24.566406 0 24.109375 -0.179688 23.734375 -0.546875 C 23.367188 -0.910156 23.1875 -1.367188 23.1875 -1.921875 L 23.1875 -14.421875 C 23.164062 -14.859375 23.0625 -15.273438 22.875 -15.671875 C 22.695312 -16.078125 22.453125 -16.441406 22.140625 -16.765625 C 21.816406 -17.066406 21.441406 -17.300781 21.015625 -17.46875 C 20.597656 -17.632812 20.171875 -17.71875 19.734375 -17.71875 C 18.867188 -17.71875 18.117188 -17.421875 17.484375 -16.828125 C 16.847656 -16.234375 16.5 -15.503906 16.4375 -14.640625 C 16.445312 -14.628906 16.453125 -14.546875 16.453125 -14.390625 L 16.453125 -1.96875 C 16.453125 -1.425781 16.265625 -0.96875 15.890625 -0.59375 C 15.515625 -0.207031 15.0625 -0.015625 14.53125 -0.015625 C 14 -0.015625 13.546875 -0.203125 13.171875 -0.578125 C 12.796875 -0.960938 12.609375 -1.425781 12.609375 -1.96875 L 12.609375 -14.28125 C 12.609375 -15.238281 12.296875 -16.050781 11.671875 -16.71875 C 10.992188 -17.40625 10.195312 -17.75 9.28125 -17.75 C 8.4375 -17.75 7.691406 -17.460938 7.046875 -16.890625 C 6.410156 -16.335938 6.035156 -15.648438 5.921875 -14.828125 C 5.929688 -14.753906 5.9375 -14.6875 5.9375 -14.625 C 5.945312 -14.5625 5.953125 -14.507812 5.953125 -14.46875 L 5.890625 -1.921875 C 5.890625 -1.367188 5.703125 -0.910156 5.328125 -0.546875 C 4.960938 -0.179688 4.519531 0 4 0 Z M 4 0 "/></g></g></g><g fill="#ffffff" fill-opacity="1"><g transform="translate(259.625931, 193.697346)"><g><path d="M 11.65625 0.265625 C 10.21875 0.265625 8.84375 -0.0078125 7.53125 -0.5625 C 6.21875 -1.113281 5.078125 -1.878906 4.109375 -2.859375 C 3.117188 -3.835938 2.34375 -4.976562 1.78125 -6.28125 C 1.226562 -7.582031 0.953125 -8.953125 0.953125 -10.390625 C 0.953125 -11.847656 1.226562 -13.226562 1.78125 -14.53125 C 2.34375 -15.832031 3.117188 -16.96875 4.109375 -17.9375 C 5.078125 -18.914062 6.21875 -19.679688 7.53125 -20.234375 C 8.84375 -20.785156 10.21875 -21.0625 11.65625 -21.0625 C 13.082031 -21.0625 14.445312 -20.785156 15.75 -20.234375 C 17.050781 -19.691406 18.195312 -18.9375 19.1875 -17.96875 C 20.164062 -16.988281 20.929688 -15.847656 21.484375 -14.546875 C 22.046875 -13.253906 22.335938 -11.898438 22.359375 -10.484375 C 22.359375 -9.953125 22.179688 -9.507812 21.828125 -9.15625 C 21.472656 -8.8125 21.019531 -8.640625 20.46875 -8.640625 L 5.234375 -8.640625 C 5.398438 -7.898438 5.675781 -7.21875 6.0625 -6.59375 C 6.457031 -5.96875 6.941406 -5.414062 7.515625 -4.9375 C 8.703125 -3.945312 10.082031 -3.453125 11.65625 -3.453125 C 12.382812 -3.453125 13 -3.515625 13.5 -3.640625 C 14 -3.773438 14.503906 -3.992188 15.015625 -4.296875 C 15.421875 -4.535156 15.804688 -4.65625 16.171875 -4.65625 C 16.671875 -4.65625 17.113281 -4.457031 17.5 -4.0625 C 17.882812 -3.65625 18.078125 -3.179688 18.078125 -2.640625 C 18.078125 -1.753906 17.4375 -1.039062 16.15625 -0.5 C 15.570312 -0.25 14.890625 -0.0625 14.109375 0.0625 C 13.328125 0.195312 12.507812 0.265625 11.65625 0.265625 Z M 5.125 -11.875 L 18.40625 -11.875 C 18.125 -13.476562 17.363281 -14.785156 16.125 -15.796875 C 15.53125 -16.296875 14.851562 -16.679688 14.09375 -16.953125 C 13.34375 -17.234375 12.550781 -17.375 11.71875 -17.375 C 9.988281 -17.375 8.523438 -16.84375 7.328125 -15.78125 C 6.753906 -15.289062 6.273438 -14.707031 5.890625 -14.03125 C 5.515625 -13.351562 5.257812 -12.632812 5.125 -11.875 Z M 5.125 -11.875 "/></g></g></g><g fill="#ffffff" fill-opacity="1"><g transform="translate(280.749217, 193.697346)"><g><path d="M 3.5 0 C 2.9375 0 2.476562 -0.179688 2.125 -0.546875 C 1.707031 -0.910156 1.5 -1.363281 1.5 -1.90625 L 1.5 -10.78125 C 1.5 -12.175781 1.753906 -13.5 2.265625 -14.75 C 2.773438 -16 3.488281 -17.097656 4.40625 -18.046875 C 5.34375 -18.992188 6.421875 -19.734375 7.640625 -20.265625 C 8.859375 -20.796875 10.160156 -21.0625 11.546875 -21.0625 C 12.941406 -21.0625 14.253906 -20.796875 15.484375 -20.265625 C 16.710938 -19.734375 17.800781 -18.992188 18.75 -18.046875 C 19.664062 -17.097656 20.378906 -16 20.890625 -14.75 C 21.398438 -13.5 21.65625 -12.175781 21.65625 -10.78125 L 21.65625 -1.90625 C 21.65625 -1.34375 21.472656 -0.882812 21.109375 -0.53125 C 20.742188 -0.175781 20.289062 0 19.75 0 C 19.21875 0 18.757812 -0.175781 18.375 -0.53125 C 18 -0.882812 17.8125 -1.34375 17.8125 -1.90625 L 17.8125 -10.734375 C 17.800781 -11.609375 17.632812 -12.4375 17.3125 -13.21875 C 17 -14.007812 16.5625 -14.695312 16 -15.28125 C 15.414062 -15.875 14.738281 -16.335938 13.96875 -16.671875 C 13.207031 -17.003906 12.398438 -17.171875 11.546875 -17.171875 C 9.773438 -17.171875 8.304688 -16.554688 7.140625 -15.328125 C 6.566406 -14.742188 6.128906 -14.054688 5.828125 -13.265625 C 5.523438 -12.484375 5.375 -11.65625 5.375 -10.78125 L 5.375 -1.90625 C 5.375 -1.34375 5.191406 -0.882812 4.828125 -0.53125 C 4.472656 -0.175781 4.03125 0 3.5 0 Z M 3.5 0 "/></g></g></g><g fill="#ffffff" fill-opacity="1"><g transform="translate(302.309095, 193.697346)"><g><path d="M 12.640625 0.265625 C 11.171875 0.265625 9.785156 0 8.484375 -0.53125 C 7.191406 -1.0625 6.054688 -1.804688 5.078125 -2.765625 C 4.097656 -3.742188 3.328125 -4.875 2.765625 -6.15625 C 2.210938 -7.4375 1.9375 -8.804688 1.9375 -10.265625 L 1.9375 -25.421875 C 1.9375 -25.960938 2.132812 -26.429688 2.53125 -26.828125 C 2.90625 -27.203125 3.359375 -27.390625 3.890625 -27.390625 C 4.421875 -27.390625 4.890625 -27.203125 5.296875 -26.828125 C 5.691406 -26.429688 5.890625 -25.960938 5.890625 -25.421875 L 5.890625 -21.15625 L 14.5625 -21.15625 C 15.09375 -21.15625 15.546875 -20.960938 15.921875 -20.578125 C 16.304688 -20.191406 16.5 -19.726562 16.5 -19.1875 C 16.5 -18.664062 16.3125 -18.222656 15.9375 -17.859375 C 15.570312 -17.503906 15.113281 -17.328125 14.5625 -17.328125 L 5.890625 -17.328125 L 5.890625 -10.21875 C 5.890625 -9.300781 6.0625 -8.4375 6.40625 -7.625 C 6.75 -6.820312 7.234375 -6.113281 7.859375 -5.5 C 8.472656 -4.882812 9.1875 -4.410156 10 -4.078125 C 10.820312 -3.742188 11.703125 -3.578125 12.640625 -3.578125 C 14.410156 -3.578125 15.863281 -4.101562 17 -5.15625 C 17.46875 -5.59375 17.957031 -5.8125 18.46875 -5.8125 C 18.90625 -5.8125 19.3125 -5.640625 19.6875 -5.296875 C 20.039062 -4.953125 20.21875 -4.523438 20.21875 -4.015625 C 20.21875 -3.378906 19.984375 -2.828125 19.515625 -2.359375 C 17.679688 -0.609375 15.390625 0.265625 12.640625 0.265625 Z M 12.640625 0.265625 "/></g></g></g><g fill="#ffffff" fill-opacity="1"><g transform="translate(222.638995, 212.447345)"><g><path d="M 1.28125 0.046875 C 1.132812 0.046875 1.007812 0 0.90625 -0.09375 C 0.8125 -0.195312 0.765625 -0.316406 0.765625 -0.453125 L 0.765625 -7.140625 C 0.765625 -7.285156 0.816406 -7.40625 0.921875 -7.5 C 1.023438 -7.601562 1.144531 -7.65625 1.28125 -7.65625 L 3.453125 -7.65625 C 3.828125 -7.65625 4.1875 -7.582031 4.53125 -7.4375 C 4.875 -7.300781 5.175781 -7.101562 5.4375 -6.84375 C 5.6875 -6.59375 5.882812 -6.289062 6.03125 -5.9375 C 6.175781 -5.582031 6.25 -5.21875 6.25 -4.84375 C 6.25 -4.457031 6.175781 -4.097656 6.03125 -3.765625 C 5.894531 -3.429688 5.695312 -3.140625 5.4375 -2.890625 C 5.175781 -2.640625 4.875 -2.441406 4.53125 -2.296875 C 4.1875 -2.148438 3.820312 -2.078125 3.4375 -2.078125 L 1.796875 -2.078125 L 1.796875 -0.453125 C 1.796875 -0.316406 1.742188 -0.195312 1.640625 -0.09375 C 1.546875 0 1.425781 0.046875 1.28125 0.046875 Z M 1.796875 -3.109375 L 3.453125 -3.109375 C 3.703125 -3.109375 3.929688 -3.15625 4.140625 -3.25 C 4.359375 -3.34375 4.550781 -3.472656 4.71875 -3.640625 C 4.875 -3.796875 4.992188 -3.976562 5.078125 -4.1875 C 5.171875 -4.394531 5.21875 -4.613281 5.21875 -4.84375 C 5.21875 -5.0625 5.171875 -5.28125 5.078125 -5.5 C 4.992188 -5.726562 4.875 -5.921875 4.71875 -6.078125 C 4.550781 -6.242188 4.359375 -6.375 4.140625 -6.46875 C 3.929688 -6.570312 3.707031 -6.625 3.46875 -6.625 L 1.796875 -6.625 Z M 1.796875 -3.109375 "/></g></g></g><g fill="#ffffff" fill-opacity="1"><g transform="translate(228.322749, 212.447345)"><g><path d="M 3.09375 0.0625 C 2.707031 0.0625 2.34375 -0.00390625 2 -0.140625 C 1.65625 -0.285156 1.351562 -0.492188 1.09375 -0.765625 C 0.832031 -1.023438 0.625 -1.328125 0.46875 -1.671875 C 0.320312 -2.015625 0.25 -2.378906 0.25 -2.765625 C 0.25 -3.148438 0.320312 -3.515625 0.46875 -3.859375 C 0.625 -4.203125 0.832031 -4.503906 1.09375 -4.765625 C 1.351562 -5.035156 1.65625 -5.242188 2 -5.390625 C 2.34375 -5.535156 2.707031 -5.609375 3.09375 -5.609375 C 3.476562 -5.609375 3.84375 -5.53125 4.1875 -5.375 C 4.53125 -5.226562 4.832031 -5.023438 5.09375 -4.765625 C 5.351562 -4.503906 5.554688 -4.203125 5.703125 -3.859375 C 5.847656 -3.515625 5.921875 -3.148438 5.921875 -2.765625 C 5.921875 -2.378906 5.847656 -2.015625 5.703125 -1.671875 C 5.554688 -1.328125 5.351562 -1.023438 5.09375 -0.765625 C 4.832031 -0.503906 4.53125 -0.300781 4.1875 -0.15625 C 3.84375 -0.0078125 3.476562 0.0625 3.09375 0.0625 Z M 3.09375 -0.953125 C 3.34375 -0.953125 3.578125 -1 3.796875 -1.09375 C 4.015625 -1.1875 4.207031 -1.316406 4.375 -1.484375 C 4.539062 -1.648438 4.664062 -1.84375 4.75 -2.0625 C 4.84375 -2.28125 4.890625 -2.515625 4.890625 -2.765625 C 4.890625 -3.003906 4.84375 -3.234375 4.75 -3.453125 C 4.664062 -3.671875 4.539062 -3.863281 4.375 -4.03125 C 4.207031 -4.195312 4.015625 -4.328125 3.796875 -4.421875 C 3.578125 -4.515625 3.34375 -4.5625 3.09375 -4.5625 C 2.84375 -4.5625 2.609375 -4.515625 2.390625 -4.421875 C 2.171875 -4.328125 1.976562 -4.195312 1.8125 -4.03125 C 1.644531 -3.863281 1.515625 -3.671875 1.421875 -3.453125 C 1.328125 -3.234375 1.28125 -3.003906 1.28125 -2.765625 C 1.28125 -2.515625 1.328125 -2.28125 1.421875 -2.0625 C 1.515625 -1.84375 1.644531 -1.648438 1.8125 -1.484375 C 1.976562 -1.316406 2.171875 -1.1875 2.390625 -1.09375 C 2.609375 -1 2.84375 -0.953125 3.09375 -0.953125 Z M 3.09375 -0.953125 "/></g></g></g><g fill="#ffffff" fill-opacity="1"><g transform="translate(233.91939, 212.447345)"><g><path d="M 2.453125 0.0625 C 2.191406 0.0625 1.945312 0.015625 1.71875 -0.078125 C 1.488281 -0.171875 1.285156 -0.3125 1.109375 -0.5 C 0.929688 -0.664062 0.789062 -0.863281 0.6875 -1.09375 C 0.59375 -1.332031 0.546875 -1.582031 0.546875 -1.84375 L 0.546875 -5.09375 C 0.546875 -5.238281 0.59375 -5.359375 0.6875 -5.453125 C 0.789062 -5.546875 0.914062 -5.59375 1.0625 -5.59375 C 1.195312 -5.59375 1.316406 -5.546875 1.421875 -5.453125 C 1.515625 -5.347656 1.5625 -5.226562 1.5625 -5.09375 L 1.578125 -1.859375 C 1.578125 -1.859375 1.578125 -1.847656 1.578125 -1.828125 C 1.578125 -1.804688 1.578125 -1.785156 1.578125 -1.765625 C 1.609375 -1.535156 1.707031 -1.347656 1.875 -1.203125 C 2.039062 -1.054688 2.238281 -0.984375 2.46875 -0.984375 C 2.71875 -0.984375 2.929688 -1.078125 3.109375 -1.265625 C 3.273438 -1.453125 3.359375 -1.675781 3.359375 -1.9375 L 3.359375 -5.078125 C 3.359375 -5.222656 3.40625 -5.34375 3.5 -5.4375 C 3.601562 -5.539062 3.722656 -5.59375 3.859375 -5.59375 C 4.003906 -5.59375 4.128906 -5.546875 4.234375 -5.453125 C 4.328125 -5.347656 4.375 -5.222656 4.375 -5.078125 L 4.375 -1.875 C 4.375 -1.832031 4.375 -1.8125 4.375 -1.8125 C 4.394531 -1.570312 4.488281 -1.378906 4.65625 -1.234375 C 4.820312 -1.078125 5.019531 -1 5.25 -1 C 5.375 -1 5.488281 -1.019531 5.59375 -1.0625 C 5.707031 -1.113281 5.8125 -1.179688 5.90625 -1.265625 C 6.082031 -1.441406 6.171875 -1.65625 6.171875 -1.90625 L 6.171875 -5.09375 C 6.171875 -5.238281 6.21875 -5.359375 6.3125 -5.453125 C 6.414062 -5.546875 6.535156 -5.59375 6.671875 -5.59375 C 6.816406 -5.59375 6.9375 -5.546875 7.03125 -5.453125 C 7.132812 -5.359375 7.1875 -5.238281 7.1875 -5.09375 L 7.1875 -1.84375 C 7.1875 -1.582031 7.132812 -1.335938 7.03125 -1.109375 C 6.925781 -0.878906 6.785156 -0.675781 6.609375 -0.5 C 6.429688 -0.3125 6.222656 -0.171875 5.984375 -0.078125 C 5.742188 0.015625 5.5 0.0625 5.25 0.0625 C 4.96875 0.0625 4.707031 0.0078125 4.46875 -0.09375 C 4.226562 -0.195312 4.019531 -0.347656 3.84375 -0.546875 C 3.664062 -0.347656 3.457031 -0.195312 3.21875 -0.09375 C 2.976562 0.0078125 2.722656 0.0625 2.453125 0.0625 Z M 2.453125 0.0625 "/></g></g></g><g fill="#ffffff" fill-opacity="1"><g transform="translate(240.991232, 212.447345)"><g><path d="M 3.09375 0.0625 C 2.71875 0.0625 2.351562 -0.0078125 2 -0.15625 C 1.65625 -0.300781 1.351562 -0.503906 1.09375 -0.765625 C 0.832031 -1.023438 0.625 -1.328125 0.46875 -1.671875 C 0.320312 -2.015625 0.25 -2.378906 0.25 -2.765625 C 0.25 -3.148438 0.320312 -3.515625 0.46875 -3.859375 C 0.625 -4.210938 0.832031 -4.515625 1.09375 -4.765625 C 1.351562 -5.023438 1.65625 -5.226562 2 -5.375 C 2.351562 -5.53125 2.71875 -5.609375 3.09375 -5.609375 C 3.476562 -5.609375 3.84375 -5.535156 4.1875 -5.390625 C 4.53125 -5.242188 4.835938 -5.039062 5.109375 -4.78125 C 5.367188 -4.519531 5.570312 -4.21875 5.71875 -3.875 C 5.863281 -3.53125 5.941406 -3.164062 5.953125 -2.78125 C 5.953125 -2.644531 5.90625 -2.53125 5.8125 -2.4375 C 5.71875 -2.34375 5.597656 -2.296875 5.453125 -2.296875 L 1.390625 -2.296875 C 1.429688 -2.097656 1.503906 -1.914062 1.609375 -1.75 C 1.710938 -1.582031 1.84375 -1.4375 2 -1.3125 C 2.3125 -1.050781 2.675781 -0.921875 3.09375 -0.921875 C 3.289062 -0.921875 3.457031 -0.9375 3.59375 -0.96875 C 3.726562 -1 3.863281 -1.054688 4 -1.140625 C 4.101562 -1.203125 4.203125 -1.234375 4.296875 -1.234375 C 4.429688 -1.234375 4.550781 -1.179688 4.65625 -1.078125 C 4.757812 -0.972656 4.8125 -0.847656 4.8125 -0.703125 C 4.8125 -0.460938 4.640625 -0.273438 4.296875 -0.140625 C 4.140625 -0.0664062 3.957031 -0.015625 3.75 0.015625 C 3.539062 0.046875 3.320312 0.0625 3.09375 0.0625 Z M 1.359375 -3.15625 L 4.890625 -3.15625 C 4.816406 -3.582031 4.617188 -3.929688 4.296875 -4.203125 C 4.128906 -4.335938 3.945312 -4.441406 3.75 -4.515625 C 3.550781 -4.585938 3.34375 -4.625 3.125 -4.625 C 2.65625 -4.625 2.265625 -4.484375 1.953125 -4.203125 C 1.796875 -4.066406 1.664062 -3.90625 1.5625 -3.71875 C 1.46875 -3.539062 1.398438 -3.351562 1.359375 -3.15625 Z M 1.359375 -3.15625 "/></g></g></g><g fill="#ffffff" fill-opacity="1"><g transform="translate(246.611104, 212.447345)"><g><path d="M 1.046875 0 C 0.898438 0 0.773438 -0.046875 0.671875 -0.140625 C 0.566406 -0.242188 0.515625 -0.367188 0.515625 -0.515625 L 0.515625 -2.640625 C 0.515625 -3.035156 0.585938 -3.410156 0.734375 -3.765625 C 0.890625 -4.128906 1.101562 -4.453125 1.375 -4.734375 C 1.65625 -5.003906 1.972656 -5.21875 2.328125 -5.375 C 2.691406 -5.53125 3.070312 -5.609375 3.46875 -5.609375 L 3.5 -5.609375 C 3.664062 -5.609375 3.796875 -5.554688 3.890625 -5.453125 C 3.984375 -5.359375 4.03125 -5.238281 4.03125 -5.09375 C 4.03125 -4.945312 3.976562 -4.820312 3.875 -4.71875 C 3.769531 -4.625 3.644531 -4.578125 3.5 -4.578125 L 3.46875 -4.578125 C 3.207031 -4.578125 2.957031 -4.523438 2.71875 -4.421875 C 2.488281 -4.328125 2.285156 -4.191406 2.109375 -4.015625 C 1.929688 -3.828125 1.789062 -3.613281 1.6875 -3.375 C 1.582031 -3.144531 1.53125 -2.898438 1.53125 -2.640625 L 1.53125 -0.515625 C 1.53125 -0.367188 1.484375 -0.242188 1.390625 -0.140625 C 1.296875 -0.046875 1.179688 0 1.046875 0 Z M 1.046875 0 "/></g></g></g><g fill="#ffffff" fill-opacity="1"><g transform="translate(249.919431, 212.447345)"><g><path d="M 3.09375 0.0625 C 2.71875 0.0625 2.351562 -0.0078125 2 -0.15625 C 1.65625 -0.300781 1.351562 -0.503906 1.09375 -0.765625 C 0.832031 -1.023438 0.625 -1.328125 0.46875 -1.671875 C 0.320312 -2.015625 0.25 -2.378906 0.25 -2.765625 C 0.25 -3.148438 0.320312 -3.515625 0.46875 -3.859375 C 0.625 -4.210938 0.832031 -4.515625 1.09375 -4.765625 C 1.351562 -5.023438 1.65625 -5.226562 2 -5.375 C 2.351562 -5.53125 2.71875 -5.609375 3.09375 -5.609375 C 3.476562 -5.609375 3.84375 -5.535156 4.1875 -5.390625 C 4.53125 -5.242188 4.835938 -5.039062 5.109375 -4.78125 C 5.367188 -4.519531 5.570312 -4.21875 5.71875 -3.875 C 5.863281 -3.53125 5.941406 -3.164062 5.953125 -2.78125 C 5.953125 -2.644531 5.90625 -2.53125 5.8125 -2.4375 C 5.71875 -2.34375 5.597656 -2.296875 5.453125 -2.296875 L 1.390625 -2.296875 C 1.429688 -2.097656 1.503906 -1.914062 1.609375 -1.75 C 1.710938 -1.582031 1.84375 -1.4375 2 -1.3125 C 2.3125 -1.050781 2.675781 -0.921875 3.09375 -0.921875 C 3.289062 -0.921875 3.457031 -0.9375 3.59375 -0.96875 C 3.726562 -1 3.863281 -1.054688 4 -1.140625 C 4.101562 -1.203125 4.203125 -1.234375 4.296875 -1.234375 C 4.429688 -1.234375 4.550781 -1.179688 4.65625 -1.078125 C 4.757812 -0.972656 4.8125 -0.847656 4.8125 -0.703125 C 4.8125 -0.460938 4.640625 -0.273438 4.296875 -0.140625 C 4.140625 -0.0664062 3.957031 -0.015625 3.75 0.015625 C 3.539062 0.046875 3.320312 0.0625 3.09375 0.0625 Z M 1.359375 -3.15625 L 4.890625 -3.15625 C 4.816406 -3.582031 4.617188 -3.929688 4.296875 -4.203125 C 4.128906 -4.335938 3.945312 -4.441406 3.75 -4.515625 C 3.550781 -4.585938 3.34375 -4.625 3.125 -4.625 C 2.65625 -4.625 2.265625 -4.484375 1.953125 -4.203125 C 1.796875 -4.066406 1.664062 -3.90625 1.5625 -3.71875 C 1.46875 -3.539062 1.398438 -3.351562 1.359375 -3.15625 Z M 1.359375 -3.15625 "/></g></g></g><g fill="#ffffff" fill-opacity="1"><g transform="translate(255.539304, 212.447345)"><g><path d="M 3.09375 0.0625 C 2.707031 0.0625 2.34375 -0.00390625 2 -0.140625 C 1.65625 -0.285156 1.351562 -0.492188 1.09375 -0.765625 C 0.832031 -1.023438 0.625 -1.328125 0.46875 -1.671875 C 0.320312 -2.015625 0.25 -2.378906 0.25 -2.765625 C 0.25 -3.148438 0.320312 -3.515625 0.46875 -3.859375 C 0.625 -4.203125 0.832031 -4.503906 1.09375 -4.765625 C 1.351562 -5.035156 1.65625 -5.242188 2 -5.390625 C 2.34375 -5.535156 2.707031 -5.609375 3.09375 -5.609375 C 3.539062 -5.609375 3.914062 -5.515625 4.21875 -5.328125 C 4.5 -5.148438 4.722656 -4.894531 4.890625 -4.5625 L 4.890625 -7.109375 C 4.890625 -7.265625 4.9375 -7.390625 5.03125 -7.484375 C 5.132812 -7.585938 5.257812 -7.640625 5.40625 -7.640625 C 5.550781 -7.640625 5.671875 -7.585938 5.765625 -7.484375 C 5.867188 -7.390625 5.921875 -7.265625 5.921875 -7.109375 L 5.921875 -2.734375 C 5.921875 -2.347656 5.84375 -1.984375 5.6875 -1.640625 C 5.539062 -1.304688 5.34375 -1.007812 5.09375 -0.75 C 4.832031 -0.488281 4.523438 -0.285156 4.171875 -0.140625 C 3.828125 -0.00390625 3.46875 0.0625 3.09375 0.0625 Z M 3.09375 -0.953125 C 3.34375 -0.953125 3.578125 -1 3.796875 -1.09375 C 4.015625 -1.1875 4.207031 -1.316406 4.375 -1.484375 C 4.539062 -1.648438 4.664062 -1.84375 4.75 -2.0625 C 4.84375 -2.28125 4.890625 -2.515625 4.890625 -2.765625 C 4.890625 -3.003906 4.84375 -3.234375 4.75 -3.453125 C 4.664062 -3.671875 4.539062 -3.863281 4.375 -4.03125 C 4.207031 -4.195312 4.015625 -4.328125 3.796875 -4.421875 C 3.578125 -4.515625 3.34375 -4.5625 3.09375 -4.5625 C 2.84375 -4.5625 2.609375 -4.515625 2.390625 -4.421875 C 2.171875 -4.328125 1.976562 -4.195312 1.8125 -4.03125 C 1.644531 -3.863281 1.515625 -3.671875 1.421875 -3.453125 C 1.328125 -3.234375 1.28125 -3.003906 1.28125 -2.765625 C 1.28125 -2.515625 1.328125 -2.28125 1.421875 -2.0625 C 1.515625 -1.84375 1.644531 -1.648438 1.8125 -1.484375 C 1.976562 -1.316406 2.171875 -1.1875 2.390625 -1.09375 C 2.609375 -1 2.84375 -0.953125 3.09375 -0.953125 Z M 3.09375 -0.953125 "/></g></g></g><g fill="#ffffff" fill-opacity="1"><g transform="translate(261.397305, 212.447345)"><g/></g></g><g fill="#ffffff" fill-opacity="1"><g transform="translate(263.491802, 212.447345)"><g><path d="M 3.359375 0.0625 C 2.972656 0.0625 2.601562 -0.0078125 2.25 -0.15625 C 1.90625 -0.300781 1.609375 -0.503906 1.359375 -0.765625 C 1.085938 -1.023438 0.878906 -1.328125 0.734375 -1.671875 C 0.585938 -2.015625 0.515625 -2.378906 0.515625 -2.765625 L 0.515625 -7.125 C 0.515625 -7.257812 0.566406 -7.382812 0.671875 -7.5 C 0.765625 -7.59375 0.882812 -7.640625 1.03125 -7.640625 C 1.175781 -7.640625 1.296875 -7.585938 1.390625 -7.484375 C 1.484375 -7.390625 1.53125 -7.269531 1.53125 -7.125 L 1.53125 -4.515625 C 1.675781 -4.835938 1.921875 -5.097656 2.265625 -5.296875 C 2.429688 -5.390625 2.609375 -5.460938 2.796875 -5.515625 C 2.984375 -5.578125 3.171875 -5.609375 3.359375 -5.609375 C 3.742188 -5.609375 4.109375 -5.53125 4.453125 -5.375 C 4.796875 -5.226562 5.097656 -5.023438 5.359375 -4.765625 C 5.617188 -4.503906 5.820312 -4.203125 5.96875 -3.859375 C 6.113281 -3.515625 6.1875 -3.148438 6.1875 -2.765625 C 6.1875 -2.378906 6.113281 -2.015625 5.96875 -1.671875 C 5.820312 -1.328125 5.617188 -1.023438 5.359375 -0.765625 C 5.097656 -0.503906 4.796875 -0.300781 4.453125 -0.15625 C 4.109375 -0.0078125 3.742188 0.0625 3.359375 0.0625 Z M 3.359375 -0.96875 C 3.609375 -0.96875 3.84375 -1.015625 4.0625 -1.109375 C 4.28125 -1.203125 4.472656 -1.328125 4.640625 -1.484375 C 4.804688 -1.648438 4.929688 -1.84375 5.015625 -2.0625 C 5.109375 -2.28125 5.15625 -2.515625 5.15625 -2.765625 C 5.15625 -3.015625 5.109375 -3.25 5.015625 -3.46875 C 4.929688 -3.6875 4.804688 -3.878906 4.640625 -4.046875 C 4.472656 -4.210938 4.28125 -4.335938 4.0625 -4.421875 C 3.84375 -4.515625 3.609375 -4.5625 3.359375 -4.5625 C 3.109375 -4.5625 2.875 -4.515625 2.65625 -4.421875 C 2.4375 -4.335938 2.242188 -4.210938 2.078125 -4.046875 C 1.910156 -3.878906 1.78125 -3.6875 1.6875 -3.46875 C 1.59375 -3.25 1.546875 -3.015625 1.546875 -2.765625 C 1.546875 -2.515625 1.59375 -2.28125 1.6875 -2.0625 C 1.78125 -1.84375 1.910156 -1.648438 2.078125 -1.484375 C 2.242188 -1.328125 2.4375 -1.203125 2.65625 -1.109375 C 2.875 -1.015625 3.109375 -0.96875 3.359375 -0.96875 Z M 3.359375 -0.96875 "/></g></g></g><g fill="#ffffff" fill-opacity="1"><g transform="translate(269.349804, 212.447345)"><g><path d="M 5.578125 1.75 C 5.429688 1.75 5.304688 1.695312 5.203125 1.59375 C 5.109375 1.5 5.0625 1.378906 5.0625 1.234375 L 5.0625 -0.796875 C 4.820312 -0.554688 4.550781 -0.367188 4.25 -0.234375 C 3.945312 -0.0976562 3.628906 -0.03125 3.296875 -0.03125 C 2.910156 -0.03125 2.546875 -0.101562 2.203125 -0.25 C 1.859375 -0.394531 1.554688 -0.597656 1.296875 -0.859375 C 1.035156 -1.117188 0.832031 -1.421875 0.6875 -1.765625 C 0.539062 -2.109375 0.46875 -2.46875 0.46875 -2.84375 L 0.46875 -5.09375 C 0.46875 -5.238281 0.515625 -5.359375 0.609375 -5.453125 C 0.710938 -5.554688 0.84375 -5.609375 1 -5.609375 C 1.132812 -5.609375 1.253906 -5.554688 1.359375 -5.453125 C 1.460938 -5.359375 1.515625 -5.238281 1.515625 -5.09375 L 1.515625 -2.828125 C 1.515625 -2.585938 1.554688 -2.359375 1.640625 -2.140625 C 1.734375 -1.929688 1.863281 -1.75 2.03125 -1.59375 C 2.195312 -1.425781 2.390625 -1.296875 2.609375 -1.203125 C 2.828125 -1.109375 3.054688 -1.0625 3.296875 -1.0625 C 3.523438 -1.0625 3.742188 -1.109375 3.953125 -1.203125 C 4.171875 -1.296875 4.363281 -1.425781 4.53125 -1.59375 C 4.695312 -1.75 4.828125 -1.929688 4.921875 -2.140625 C 5.015625 -2.359375 5.0625 -2.585938 5.0625 -2.828125 L 5.0625 -5.09375 C 5.0625 -5.238281 5.113281 -5.359375 5.21875 -5.453125 C 5.320312 -5.554688 5.441406 -5.609375 5.578125 -5.609375 C 5.710938 -5.609375 5.835938 -5.554688 5.953125 -5.453125 C 6.054688 -5.359375 6.109375 -5.238281 6.109375 -5.09375 L 6.109375 1.234375 C 6.109375 1.378906 6.054688 1.5 5.953125 1.59375 C 5.847656 1.695312 5.722656 1.75 5.578125 1.75 Z M 5.578125 1.75 "/></g></g></g><g fill="#ffffff" fill-opacity="1"><g transform="translate(275.26007, 212.447345)"><g/></g></g><g fill="#ffffff" fill-opacity="1"><g transform="translate(277.354568, 212.447345)"><g><path d="M 3.453125 0.0625 C 3.066406 0.0625 2.703125 -0.0078125 2.359375 -0.15625 C 2.023438 -0.300781 1.734375 -0.503906 1.484375 -0.765625 C 1.234375 -1.035156 1.035156 -1.34375 0.890625 -1.6875 C 0.742188 -2.039062 0.671875 -2.410156 0.671875 -2.796875 L 0.671875 -4.8125 C 0.671875 -5.207031 0.742188 -5.578125 0.890625 -5.921875 C 1.035156 -6.273438 1.234375 -6.582031 1.484375 -6.84375 C 1.734375 -7.101562 2.023438 -7.304688 2.359375 -7.453125 C 2.703125 -7.609375 3.066406 -7.6875 3.453125 -7.6875 C 4.023438 -7.6875 4.523438 -7.550781 4.953125 -7.28125 C 5.328125 -7.039062 5.640625 -6.71875 5.890625 -6.3125 C 5.960938 -6.195312 6 -6.085938 6 -5.984375 C 6 -5.847656 5.953125 -5.726562 5.859375 -5.625 C 5.753906 -5.519531 5.628906 -5.46875 5.484375 -5.46875 C 5.316406 -5.46875 5.191406 -5.53125 5.109375 -5.65625 C 4.921875 -5.988281 4.71875 -6.226562 4.5 -6.375 C 4.21875 -6.550781 3.867188 -6.640625 3.453125 -6.640625 C 3.203125 -6.640625 2.96875 -6.59375 2.75 -6.5 C 2.539062 -6.40625 2.359375 -6.273438 2.203125 -6.109375 C 2.046875 -5.941406 1.925781 -5.742188 1.84375 -5.515625 C 1.757812 -5.296875 1.71875 -5.066406 1.71875 -4.828125 L 1.71875 -2.796875 C 1.71875 -2.546875 1.757812 -2.304688 1.84375 -2.078125 C 1.925781 -1.859375 2.046875 -1.671875 2.203125 -1.515625 C 2.359375 -1.335938 2.539062 -1.203125 2.75 -1.109375 C 2.96875 -1.015625 3.203125 -0.96875 3.453125 -0.96875 C 3.867188 -0.96875 4.21875 -1.0625 4.5 -1.25 C 4.726562 -1.40625 4.929688 -1.640625 5.109375 -1.953125 C 5.179688 -2.078125 5.300781 -2.140625 5.46875 -2.140625 C 5.613281 -2.140625 5.742188 -2.085938 5.859375 -1.984375 C 5.953125 -1.890625 6 -1.769531 6 -1.625 C 6 -1.519531 5.960938 -1.414062 5.890625 -1.3125 C 5.628906 -0.894531 5.316406 -0.570312 4.953125 -0.34375 C 4.523438 -0.0703125 4.023438 0.0625 3.453125 0.0625 Z M 3.453125 0.0625 "/></g></g></g><g fill="#ffffff" fill-opacity="1"><g transform="translate(283.322913, 212.447345)"><g><path d="M 5.171875 0 L 0.765625 0 C 0.628906 0 0.507812 -0.0507812 0.40625 -0.15625 C 0.300781 -0.25 0.25 -0.367188 0.25 -0.515625 C 0.25 -0.640625 0.300781 -0.753906 0.40625 -0.859375 L 3.9375 -4.5625 L 0.859375 -4.5625 C 0.710938 -4.5625 0.585938 -4.609375 0.484375 -4.703125 C 0.390625 -4.804688 0.34375 -4.925781 0.34375 -5.0625 C 0.34375 -5.207031 0.390625 -5.328125 0.484375 -5.421875 C 0.585938 -5.523438 0.710938 -5.578125 0.859375 -5.578125 L 5.046875 -5.578125 C 5.085938 -5.578125 5.140625 -5.5625 5.203125 -5.53125 C 5.265625 -5.507812 5.316406 -5.476562 5.359375 -5.4375 C 5.472656 -5.34375 5.535156 -5.222656 5.546875 -5.078125 L 5.546875 -5.03125 C 5.535156 -4.894531 5.476562 -4.773438 5.375 -4.671875 L 1.859375 -1 L 5.171875 -1 C 5.328125 -1 5.453125 -0.953125 5.546875 -0.859375 C 5.648438 -0.765625 5.703125 -0.648438 5.703125 -0.515625 C 5.703125 -0.367188 5.648438 -0.25 5.546875 -0.15625 C 5.453125 -0.0507812 5.328125 0 5.171875 0 Z M 5.171875 0 "/></g></g></g><g fill="#ffffff" fill-opacity="1"><g transform="translate(288.420065, 212.447345)"><g><path d="M 3.09375 0.0625 C 2.707031 0.0625 2.34375 -0.00390625 2 -0.140625 C 1.65625 -0.285156 1.359375 -0.492188 1.109375 -0.765625 C 0.847656 -1.023438 0.644531 -1.328125 0.5 -1.671875 C 0.351562 -2.015625 0.28125 -2.378906 0.28125 -2.765625 C 0.28125 -3.148438 0.351562 -3.515625 0.5 -3.859375 C 0.644531 -4.203125 0.847656 -4.503906 1.109375 -4.765625 C 1.359375 -5.035156 1.65625 -5.242188 2 -5.390625 C 2.34375 -5.535156 2.707031 -5.609375 3.09375 -5.609375 C 3.46875 -5.609375 3.820312 -5.535156 4.15625 -5.390625 C 4.5 -5.242188 4.800781 -5.039062 5.0625 -4.78125 C 5.320312 -4.519531 5.523438 -4.21875 5.671875 -3.875 C 5.816406 -3.539062 5.894531 -3.179688 5.90625 -2.796875 L 5.90625 -0.484375 C 5.90625 -0.335938 5.851562 -0.210938 5.75 -0.109375 C 5.644531 -0.00390625 5.519531 0.046875 5.375 0.046875 C 5.226562 0.046875 5.109375 -0.00390625 5.015625 -0.109375 C 4.921875 -0.210938 4.875 -0.335938 4.875 -0.484375 L 4.875 -0.5625 C 4.625 -0.363281 4.347656 -0.207031 4.046875 -0.09375 C 3.742188 0.0078125 3.425781 0.0625 3.09375 0.0625 Z M 3.09375 -0.953125 C 3.34375 -0.953125 3.570312 -1 3.78125 -1.09375 C 4 -1.1875 4.191406 -1.316406 4.359375 -1.484375 C 4.523438 -1.648438 4.648438 -1.84375 4.734375 -2.0625 C 4.828125 -2.28125 4.875 -2.515625 4.875 -2.765625 C 4.875 -3.003906 4.828125 -3.234375 4.734375 -3.453125 C 4.648438 -3.671875 4.523438 -3.863281 4.359375 -4.03125 C 4.191406 -4.195312 4 -4.328125 3.78125 -4.421875 C 3.5625 -4.515625 3.332031 -4.5625 3.09375 -4.5625 C 2.84375 -4.5625 2.609375 -4.515625 2.390625 -4.421875 C 2.171875 -4.328125 1.984375 -4.195312 1.828125 -4.03125 C 1.660156 -3.863281 1.53125 -3.671875 1.4375 -3.453125 C 1.351562 -3.234375 1.3125 -3.003906 1.3125 -2.765625 C 1.3125 -2.515625 1.351562 -2.28125 1.4375 -2.0625 C 1.53125 -1.84375 1.660156 -1.648438 1.828125 -1.484375 C 1.984375 -1.316406 2.171875 -1.1875 2.390625 -1.09375 C 2.609375 -1 2.84375 -0.953125 3.09375 -0.953125 Z M 3.09375 -0.953125 "/></g></g></g><g fill="#ffffff" fill-opacity="1"><g transform="translate(294.278067, 212.447345)"><g><path d="M 5.578125 1.75 C 5.429688 1.75 5.304688 1.695312 5.203125 1.59375 C 5.109375 1.5 5.0625 1.378906 5.0625 1.234375 L 5.0625 -0.796875 C 4.820312 -0.554688 4.550781 -0.367188 4.25 -0.234375 C 3.945312 -0.0976562 3.628906 -0.03125 3.296875 -0.03125 C 2.910156 -0.03125 2.546875 -0.101562 2.203125 -0.25 C 1.859375 -0.394531 1.554688 -0.597656 1.296875 -0.859375 C 1.035156 -1.117188 0.832031 -1.421875 0.6875 -1.765625 C 0.539062 -2.109375 0.46875 -2.46875 0.46875 -2.84375 L 0.46875 -5.09375 C 0.46875 -5.238281 0.515625 -5.359375 0.609375 -5.453125 C 0.710938 -5.554688 0.84375 -5.609375 1 -5.609375 C 1.132812 -5.609375 1.253906 -5.554688 1.359375 -5.453125 C 1.460938 -5.359375 1.515625 -5.238281 1.515625 -5.09375 L 1.515625 -2.828125 C 1.515625 -2.585938 1.554688 -2.359375 1.640625 -2.140625 C 1.734375 -1.929688 1.863281 -1.75 2.03125 -1.59375 C 2.195312 -1.425781 2.390625 -1.296875 2.609375 -1.203125 C 2.828125 -1.109375 3.054688 -1.0625 3.296875 -1.0625 C 3.523438 -1.0625 3.742188 -1.109375 3.953125 -1.203125 C 4.171875 -1.296875 4.363281 -1.425781 4.53125 -1.59375 C 4.695312 -1.75 4.828125 -1.929688 4.921875 -2.140625 C 5.015625 -2.359375 5.0625 -2.585938 5.0625 -2.828125 L 5.0625 -5.09375 C 5.0625 -5.238281 5.113281 -5.359375 5.21875 -5.453125 C 5.320312 -5.554688 5.441406 -5.609375 5.578125 -5.609375 C 5.710938 -5.609375 5.835938 -5.554688 5.953125 -5.453125 C 6.054688 -5.359375 6.109375 -5.238281 6.109375 -5.09375 L 6.109375 1.234375 C 6.109375 1.378906 6.054688 1.5 5.953125 1.59375 C 5.847656 1.695312 5.722656 1.75 5.578125 1.75 Z M 5.578125 1.75 "/></g></g></g><g fill="#ffffff" fill-opacity="1"><g transform="translate(300.188333, 212.447345)"><g><path d="M 1.21875 0 L 1.203125 0 C 1.078125 -0.0195312 0.972656 -0.078125 0.890625 -0.171875 C 0.804688 -0.265625 0.765625 -0.375 0.765625 -0.5 L 0.765625 -7.140625 C 0.765625 -7.296875 0.8125 -7.421875 0.90625 -7.515625 C 1.007812 -7.609375 1.132812 -7.65625 1.28125 -7.65625 C 1.425781 -7.65625 1.546875 -7.609375 1.640625 -7.515625 C 1.742188 -7.421875 1.796875 -7.296875 1.796875 -7.140625 L 1.796875 -1.015625 L 5.03125 -1.015625 C 5.175781 -1.015625 5.296875 -0.960938 5.390625 -0.859375 C 5.484375 -0.765625 5.53125 -0.648438 5.53125 -0.515625 C 5.53125 -0.359375 5.484375 -0.234375 5.390625 -0.140625 C 5.296875 -0.046875 5.175781 0 5.03125 0 Z M 1.21875 0 "/></g></g></g><g fill="#ffffff" fill-opacity="1"><g transform="translate(305.146097, 212.447345)"><g><path d="M 3.09375 0.0625 C 2.707031 0.0625 2.34375 -0.00390625 2 -0.140625 C 1.65625 -0.285156 1.359375 -0.492188 1.109375 -0.765625 C 0.847656 -1.023438 0.644531 -1.328125 0.5 -1.671875 C 0.351562 -2.015625 0.28125 -2.378906 0.28125 -2.765625 C 0.28125 -3.148438 0.351562 -3.515625 0.5 -3.859375 C 0.644531 -4.203125 0.847656 -4.503906 1.109375 -4.765625 C 1.359375 -5.035156 1.65625 -5.242188 2 -5.390625 C 2.34375 -5.535156 2.707031 -5.609375 3.09375 -5.609375 C 3.46875 -5.609375 3.820312 -5.535156 4.15625 -5.390625 C 4.5 -5.242188 4.800781 -5.039062 5.0625 -4.78125 C 5.320312 -4.519531 5.523438 -4.21875 5.671875 -3.875 C 5.816406 -3.539062 5.894531 -3.179688 5.90625 -2.796875 L 5.90625 -0.484375 C 5.90625 -0.335938 5.851562 -0.210938 5.75 -0.109375 C 5.644531 -0.00390625 5.519531 0.046875 5.375 0.046875 C 5.226562 0.046875 5.109375 -0.00390625 5.015625 -0.109375 C 4.921875 -0.210938 4.875 -0.335938 4.875 -0.484375 L 4.875 -0.5625 C 4.625 -0.363281 4.347656 -0.207031 4.046875 -0.09375 C 3.742188 0.0078125 3.425781 0.0625 3.09375 0.0625 Z M 3.09375 -0.953125 C 3.34375 -0.953125 3.570312 -1 3.78125 -1.09375 C 4 -1.1875 4.191406 -1.316406 4.359375 -1.484375 C 4.523438 -1.648438 4.648438 -1.84375 4.734375 -2.0625 C 4.828125 -2.28125 4.875 -2.515625 4.875 -2.765625 C 4.875 -3.003906 4.828125 -3.234375 4.734375 -3.453125 C 4.648438 -3.671875 4.523438 -3.863281 4.359375 -4.03125 C 4.191406 -4.195312 4 -4.328125 3.78125 -4.421875 C 3.5625 -4.515625 3.332031 -4.5625 3.09375 -4.5625 C 2.84375 -4.5625 2.609375 -4.515625 2.390625 -4.421875 C 2.171875 -4.328125 1.984375 -4.195312 1.828125 -4.03125 C 1.660156 -3.863281 1.53125 -3.671875 1.4375 -3.453125 C 1.351562 -3.234375 1.3125 -3.003906 1.3125 -2.765625 C 1.3125 -2.515625 1.351562 -2.28125 1.4375 -2.0625 C 1.53125 -1.84375 1.660156 -1.648438 1.828125 -1.484375 C 1.984375 -1.316406 2.171875 -1.1875 2.390625 -1.09375 C 2.609375 -1 2.84375 -0.953125 3.09375 -0.953125 Z M 3.09375 -0.953125 "/></g></g></g><g fill="#ffffff" fill-opacity="1"><g transform="translate(311.004098, 212.447345)"><g><path d="M 3.359375 0.0625 C 2.972656 0.0625 2.601562 -0.0078125 2.25 -0.15625 C 1.90625 -0.300781 1.609375 -0.503906 1.359375 -0.765625 C 1.085938 -1.023438 0.878906 -1.328125 0.734375 -1.671875 C 0.585938 -2.015625 0.515625 -2.378906 0.515625 -2.765625 L 0.515625 -7.125 C 0.515625 -7.257812 0.566406 -7.382812 0.671875 -7.5 C 0.765625 -7.59375 0.882812 -7.640625 1.03125 -7.640625 C 1.175781 -7.640625 1.296875 -7.585938 1.390625 -7.484375 C 1.484375 -7.390625 1.53125 -7.269531 1.53125 -7.125 L 1.53125 -4.515625 C 1.675781 -4.835938 1.921875 -5.097656 2.265625 -5.296875 C 2.429688 -5.390625 2.609375 -5.460938 2.796875 -5.515625 C 2.984375 -5.578125 3.171875 -5.609375 3.359375 -5.609375 C 3.742188 -5.609375 4.109375 -5.53125 4.453125 -5.375 C 4.796875 -5.226562 5.097656 -5.023438 5.359375 -4.765625 C 5.617188 -4.503906 5.820312 -4.203125 5.96875 -3.859375 C 6.113281 -3.515625 6.1875 -3.148438 6.1875 -2.765625 C 6.1875 -2.378906 6.113281 -2.015625 5.96875 -1.671875 C 5.820312 -1.328125 5.617188 -1.023438 5.359375 -0.765625 C 5.097656 -0.503906 4.796875 -0.300781 4.453125 -0.15625 C 4.109375 -0.0078125 3.742188 0.0625 3.359375 0.0625 Z M 3.359375 -0.96875 C 3.609375 -0.96875 3.84375 -1.015625 4.0625 -1.109375 C 4.28125 -1.203125 4.472656 -1.328125 4.640625 -1.484375 C 4.804688 -1.648438 4.929688 -1.84375 5.015625 -2.0625 C 5.109375 -2.28125 5.15625 -2.515625 5.15625 -2.765625 C 5.15625 -3.015625 5.109375 -3.25 5.015625 -3.46875 C 4.929688 -3.6875 4.804688 -3.878906 4.640625 -4.046875 C 4.472656 -4.210938 4.28125 -4.335938 4.0625 -4.421875 C 3.84375 -4.515625 3.609375 -4.5625 3.359375 -4.5625 C 3.109375 -4.5625 2.875 -4.515625 2.65625 -4.421875 C 2.4375 -4.335938 2.242188 -4.210938 2.078125 -4.046875 C 1.910156 -3.878906 1.78125 -3.6875 1.6875 -3.46875 C 1.59375 -3.25 1.546875 -3.015625 1.546875 -2.765625 C 1.546875 -2.515625 1.59375 -2.28125 1.6875 -2.0625 C 1.78125 -1.84375 1.910156 -1.648438 2.078125 -1.484375 C 2.242188 -1.328125 2.4375 -1.203125 2.65625 -1.109375 C 2.875 -1.015625 3.109375 -0.96875 3.359375 -0.96875 Z M 3.359375 -0.96875 "/></g></g></g><g fill="#ffffff" fill-opacity="1"><g transform="translate(316.862099, 212.447345)"><g><path d="M 3.203125 0 L 0.796875 0 C 0.660156 0 0.546875 -0.046875 0.453125 -0.140625 C 0.359375 -0.242188 0.3125 -0.367188 0.3125 -0.515625 C 0.3125 -0.671875 0.351562 -0.789062 0.4375 -0.875 C 0.53125 -0.96875 0.648438 -1.015625 0.796875 -1.015625 L 3.109375 -1.015625 C 3.191406 -1.015625 3.273438 -1.03125 3.359375 -1.0625 C 3.453125 -1.09375 3.53125 -1.140625 3.59375 -1.203125 C 3.75 -1.328125 3.828125 -1.492188 3.828125 -1.703125 C 3.828125 -1.898438 3.753906 -2.054688 3.609375 -2.171875 C 3.460938 -2.273438 3.300781 -2.328125 3.125 -2.328125 L 2.03125 -2.328125 C 1.8125 -2.328125 1.601562 -2.367188 1.40625 -2.453125 C 1.207031 -2.546875 1.03125 -2.675781 0.875 -2.84375 C 0.726562 -2.988281 0.613281 -3.160156 0.53125 -3.359375 C 0.457031 -3.566406 0.421875 -3.78125 0.421875 -4 C 0.421875 -4.21875 0.460938 -4.425781 0.546875 -4.625 C 0.628906 -4.820312 0.742188 -4.992188 0.890625 -5.140625 C 1.035156 -5.285156 1.207031 -5.398438 1.40625 -5.484375 C 1.601562 -5.566406 1.8125 -5.609375 2.03125 -5.609375 L 4.046875 -5.609375 C 4.191406 -5.609375 4.3125 -5.5625 4.40625 -5.46875 C 4.507812 -5.375 4.5625 -5.253906 4.5625 -5.109375 C 4.5625 -4.960938 4.515625 -4.835938 4.421875 -4.734375 C 4.328125 -4.628906 4.210938 -4.578125 4.078125 -4.578125 L 2.046875 -4.578125 C 1.878906 -4.578125 1.738281 -4.515625 1.625 -4.390625 C 1.507812 -4.273438 1.453125 -4.132812 1.453125 -3.96875 C 1.453125 -3.789062 1.507812 -3.648438 1.625 -3.546875 C 1.75 -3.429688 1.890625 -3.375 2.046875 -3.375 L 3.203125 -3.375 C 3.429688 -3.375 3.648438 -3.328125 3.859375 -3.234375 C 4.066406 -3.140625 4.242188 -3.015625 4.390625 -2.859375 C 4.535156 -2.703125 4.648438 -2.519531 4.734375 -2.3125 C 4.816406 -2.113281 4.859375 -1.898438 4.859375 -1.671875 C 4.859375 -1.203125 4.703125 -0.8125 4.390625 -0.5 C 4.234375 -0.34375 4.050781 -0.21875 3.84375 -0.125 C 3.644531 -0.0390625 3.429688 0 3.203125 0 Z M 3.203125 0 "/></g></g></g></svg>