<svg xmlns="http://www.w3.org/2000/svg" xmlns:xlink="http://www.w3.org/1999/xlink" width="100" zoomAndPan="magnify" viewBox="0 0 75 30.000001" height="40" preserveAspectRatio="xMidYMid meet" version="1.0"><path fill="#ffffff" d="M 6.25 15.855469 L 3.4375 15.855469 C 3.292969 15.855469 3.175781 15.804688 3.078125 15.703125 C 2.984375 15.605469 2.9375 15.484375 2.9375 15.339844 L 2.9375 8.90625 C 2.9375 8.824219 2.941406 8.769531 2.957031 8.738281 L 2.992188 8.664062 C 3.035156 8.582031 3.09375 8.515625 3.171875 8.460938 C 3.253906 8.410156 3.339844 8.382812 3.4375 8.382812 L 6.199219 8.382812 C 6.476562 8.382812 6.742188 8.4375 6.992188 8.546875 C 7.242188 8.65625 7.464844 8.804688 7.65625 8.996094 C 8.054688 9.410156 8.257812 9.925781 8.257812 10.539062 C 8.257812 10.828125 8.195312 11.105469 8.078125 11.363281 C 7.960938 11.621094 7.800781 11.84375 7.597656 12.03125 C 7.84375 12.242188 8.039062 12.492188 8.175781 12.78125 C 8.316406 13.070312 8.386719 13.378906 8.386719 13.710938 C 8.386719 13.996094 8.332031 14.273438 8.21875 14.53125 C 8.109375 14.796875 7.957031 15.027344 7.757812 15.222656 C 7.5625 15.421875 7.332031 15.578125 7.074219 15.6875 C 6.816406 15.800781 6.542969 15.855469 6.25 15.855469 Z M 3.964844 11.546875 L 6.234375 11.546875 C 6.371094 11.542969 6.503906 11.515625 6.625 11.460938 C 6.746094 11.40625 6.851562 11.332031 6.949219 11.238281 C 7.039062 11.148438 7.109375 11.046875 7.164062 10.925781 C 7.214844 10.804688 7.238281 10.675781 7.238281 10.539062 C 7.238281 10.382812 7.207031 10.226562 7.148438 10.074219 C 7.085938 9.925781 7.003906 9.800781 6.902344 9.707031 C 6.800781 9.617188 6.679688 9.542969 6.542969 9.496094 C 6.40625 9.445312 6.261719 9.417969 6.117188 9.417969 L 3.964844 9.417969 Z M 3.964844 14.824219 L 6.25 14.824219 C 6.398438 14.824219 6.535156 14.796875 6.667969 14.734375 C 6.804688 14.675781 6.917969 14.59375 7.015625 14.488281 C 7.226562 14.277344 7.328125 14.015625 7.328125 13.710938 C 7.328125 13.402344 7.226562 13.136719 7.015625 12.917969 C 6.917969 12.8125 6.804688 12.730469 6.667969 12.667969 C 6.535156 12.605469 6.398438 12.574219 6.25 12.574219 L 3.964844 12.574219 Z M 3.964844 14.824219 " fill-opacity="1" fill-rule="nonzero"/><path fill="#ffffff" d="M 11.308594 15.921875 C 10.933594 15.921875 10.578125 15.851562 10.238281 15.707031 C 9.898438 15.566406 9.601562 15.367188 9.351562 15.113281 C 9.09375 14.859375 8.890625 14.5625 8.746094 14.226562 C 8.601562 13.886719 8.53125 13.53125 8.53125 13.160156 C 8.53125 12.78125 8.601562 12.425781 8.746094 12.085938 C 8.890625 11.75 9.09375 11.453125 9.351562 11.203125 C 9.601562 10.949219 9.898438 10.75 10.238281 10.605469 C 10.578125 10.464844 10.933594 10.390625 11.308594 10.390625 C 11.675781 10.390625 12.03125 10.464844 12.367188 10.605469 C 12.707031 10.746094 13.003906 10.941406 13.261719 11.195312 C 13.511719 11.449219 13.710938 11.742188 13.855469 12.082031 C 14 12.417969 14.078125 12.769531 14.082031 13.136719 C 14.082031 13.273438 14.035156 13.386719 13.945312 13.480469 C 13.851562 13.570312 13.734375 13.613281 13.59375 13.613281 L 9.640625 13.613281 C 9.683594 13.804688 9.757812 13.980469 9.855469 14.144531 C 9.957031 14.304688 10.085938 14.449219 10.234375 14.574219 C 10.542969 14.832031 10.898438 14.957031 11.308594 14.957031 C 11.496094 14.957031 11.65625 14.941406 11.785156 14.910156 C 11.914062 14.875 12.046875 14.820312 12.179688 14.738281 C 12.285156 14.679688 12.382812 14.648438 12.476562 14.648438 C 12.609375 14.648438 12.722656 14.699219 12.824219 14.800781 C 12.921875 14.90625 12.972656 15.03125 12.972656 15.167969 C 12.972656 15.398438 12.804688 15.585938 12.472656 15.722656 C 12.320312 15.789062 12.144531 15.839844 11.941406 15.871094 C 11.742188 15.90625 11.527344 15.921875 11.308594 15.921875 Z M 9.613281 12.773438 L 13.058594 12.773438 C 12.984375 12.359375 12.789062 12.019531 12.464844 11.757812 C 12.3125 11.628906 12.136719 11.527344 11.9375 11.457031 C 11.746094 11.382812 11.539062 11.347656 11.324219 11.347656 C 10.875 11.347656 10.496094 11.484375 10.183594 11.761719 C 10.035156 11.890625 9.910156 12.039062 9.8125 12.214844 C 9.714844 12.390625 9.648438 12.578125 9.613281 12.773438 Z M 9.613281 12.773438 " fill-opacity="1" fill-rule="nonzero"/><path fill="#ffffff" d="M 16.988281 15.921875 C 16.609375 15.921875 16.25 15.855469 15.910156 15.714844 C 15.578125 15.578125 15.28125 15.386719 15.027344 15.136719 C 14.773438 14.882812 14.574219 14.589844 14.429688 14.257812 C 14.285156 13.925781 14.214844 13.570312 14.214844 13.191406 L 14.214844 9.261719 C 14.214844 9.121094 14.265625 9 14.367188 8.894531 C 14.464844 8.800781 14.582031 8.75 14.71875 8.75 C 14.859375 8.75 14.980469 8.800781 15.085938 8.894531 C 15.1875 9 15.238281 9.121094 15.238281 9.261719 L 15.238281 10.367188 L 17.488281 10.367188 C 17.625 10.367188 17.742188 10.417969 17.839844 10.515625 C 17.941406 10.617188 17.992188 10.738281 17.992188 10.878906 C 17.992188 11.011719 17.941406 11.128906 17.84375 11.222656 C 17.75 11.316406 17.632812 11.359375 17.488281 11.359375 L 15.238281 11.359375 L 15.238281 13.203125 C 15.238281 13.441406 15.285156 13.664062 15.371094 13.875 C 15.460938 14.085938 15.585938 14.269531 15.75 14.429688 C 15.910156 14.589844 16.09375 14.710938 16.304688 14.796875 C 16.519531 14.882812 16.746094 14.925781 16.988281 14.925781 C 17.449219 14.925781 17.824219 14.789062 18.121094 14.515625 C 18.242188 14.402344 18.367188 14.347656 18.5 14.347656 C 18.613281 14.347656 18.71875 14.390625 18.816406 14.480469 C 18.910156 14.570312 18.957031 14.679688 18.957031 14.8125 C 18.957031 14.976562 18.894531 15.121094 18.773438 15.242188 C 18.296875 15.695312 17.703125 15.921875 16.988281 15.921875 Z M 16.988281 15.921875 " fill-opacity="1" fill-rule="nonzero"/><path fill="#ffffff" d="M 21.792969 15.921875 C 21.414062 15.921875 21.054688 15.855469 20.714844 15.714844 C 20.382812 15.578125 20.085938 15.386719 19.832031 15.136719 C 19.578125 14.882812 19.378906 14.589844 19.234375 14.257812 C 19.089844 13.925781 19.019531 13.570312 19.019531 13.191406 L 19.019531 9.261719 C 19.019531 9.121094 19.070312 9 19.171875 8.894531 C 19.269531 8.800781 19.386719 8.75 19.523438 8.75 C 19.664062 8.75 19.785156 8.800781 19.890625 8.894531 C 19.992188 9 20.042969 9.121094 20.042969 9.261719 L 20.042969 10.367188 L 22.292969 10.367188 C 22.429688 10.367188 22.546875 10.417969 22.644531 10.515625 C 22.746094 10.617188 22.796875 10.738281 22.796875 10.878906 C 22.796875 11.011719 22.746094 11.128906 22.648438 11.222656 C 22.554688 11.316406 22.4375 11.359375 22.292969 11.359375 L 20.042969 11.359375 L 20.042969 13.203125 C 20.042969 13.441406 20.089844 13.664062 20.175781 13.875 C 20.265625 14.085938 20.390625 14.269531 20.554688 14.429688 C 20.714844 14.589844 20.898438 14.710938 21.109375 14.796875 C 21.324219 14.882812 21.550781 14.925781 21.792969 14.925781 C 22.253906 14.925781 22.628906 14.789062 22.925781 14.515625 C 23.046875 14.402344 23.171875 14.347656 23.304688 14.347656 C 23.417969 14.347656 23.523438 14.390625 23.621094 14.480469 C 23.714844 14.570312 23.761719 14.679688 23.761719 14.8125 C 23.761719 14.976562 23.699219 15.121094 23.578125 15.242188 C 23.101562 15.695312 22.507812 15.921875 21.792969 15.921875 Z M 21.792969 15.921875 " fill-opacity="1" fill-rule="nonzero"/><path fill="#ffffff" d="M 26.304688 15.921875 C 25.929688 15.921875 25.574219 15.851562 25.234375 15.707031 C 24.894531 15.566406 24.597656 15.367188 24.347656 15.113281 C 24.089844 14.859375 23.890625 14.5625 23.742188 14.226562 C 23.597656 13.886719 23.527344 13.53125 23.527344 13.160156 C 23.527344 12.78125 23.597656 12.425781 23.742188 12.085938 C 23.890625 11.75 24.089844 11.453125 24.347656 11.203125 C 24.597656 10.949219 24.894531 10.75 25.234375 10.605469 C 25.574219 10.464844 25.929688 10.390625 26.304688 10.390625 C 26.675781 10.390625 27.027344 10.464844 27.367188 10.605469 C 27.703125 10.746094 28 10.941406 28.257812 11.195312 C 28.511719 11.449219 28.710938 11.742188 28.851562 12.082031 C 29 12.417969 29.074219 12.769531 29.082031 13.136719 C 29.082031 13.273438 29.035156 13.386719 28.941406 13.480469 C 28.851562 13.570312 28.734375 13.613281 28.589844 13.613281 L 24.640625 13.613281 C 24.679688 13.804688 24.753906 13.980469 24.851562 14.144531 C 24.957031 14.304688 25.082031 14.449219 25.230469 14.574219 C 25.539062 14.832031 25.894531 14.957031 26.304688 14.957031 C 26.492188 14.957031 26.652344 14.941406 26.78125 14.910156 C 26.910156 14.875 27.042969 14.820312 27.175781 14.738281 C 27.28125 14.679688 27.378906 14.648438 27.476562 14.648438 C 27.605469 14.648438 27.71875 14.699219 27.820312 14.800781 C 27.917969 14.90625 27.96875 15.03125 27.96875 15.167969 C 27.96875 15.398438 27.804688 15.585938 27.472656 15.722656 C 27.320312 15.789062 27.144531 15.839844 26.941406 15.871094 C 26.738281 15.90625 26.523438 15.921875 26.304688 15.921875 Z M 24.609375 12.773438 L 28.054688 12.773438 C 27.980469 12.359375 27.785156 12.019531 27.464844 11.757812 C 27.308594 11.628906 27.132812 11.527344 26.9375 11.457031 C 26.742188 11.382812 26.535156 11.347656 26.320312 11.347656 C 25.871094 11.347656 25.492188 11.484375 25.183594 11.761719 C 25.03125 11.890625 24.90625 12.039062 24.808594 12.214844 C 24.710938 12.390625 24.644531 12.578125 24.609375 12.773438 Z M 24.609375 12.773438 " fill-opacity="1" fill-rule="nonzero"/><path fill="#ffffff" d="M 29.777344 15.855469 C 29.632812 15.855469 29.515625 15.808594 29.421875 15.710938 C 29.316406 15.617188 29.261719 15.5 29.261719 15.355469 L 29.261719 13.285156 C 29.261719 12.894531 29.335938 12.527344 29.484375 12.175781 C 29.636719 11.820312 29.84375 11.507812 30.105469 11.238281 C 30.375 10.972656 30.683594 10.761719 31.03125 10.613281 C 31.382812 10.464844 31.75 10.390625 32.140625 10.390625 L 32.167969 10.390625 C 32.332031 10.390625 32.460938 10.4375 32.546875 10.53125 C 32.640625 10.621094 32.6875 10.742188 32.6875 10.890625 C 32.6875 11.035156 32.636719 11.152344 32.535156 11.246094 C 32.4375 11.34375 32.3125 11.386719 32.167969 11.386719 L 32.140625 11.386719 C 31.886719 11.386719 31.644531 11.4375 31.417969 11.535156 C 31.191406 11.632812 30.992188 11.769531 30.816406 11.945312 C 30.640625 12.121094 30.503906 12.324219 30.40625 12.554688 C 30.308594 12.785156 30.257812 13.027344 30.257812 13.285156 L 30.257812 15.355469 C 30.257812 15.5 30.210938 15.617188 30.121094 15.710938 C 30.027344 15.808594 29.914062 15.855469 29.777344 15.855469 Z M 29.777344 15.855469 " fill-opacity="1" fill-rule="nonzero"/><path fill="#5170ff" d="M 33.496094 15.898438 C 33.355469 15.898438 33.238281 15.851562 33.140625 15.757812 C 33.046875 15.660156 33 15.542969 33 15.410156 L 33 8.882812 C 33 8.746094 33.046875 8.628906 33.144531 8.53125 C 33.242188 8.433594 33.359375 8.386719 33.496094 8.386719 L 35.609375 8.386719 C 35.980469 8.386719 36.332031 8.453125 36.664062 8.59375 C 36.996094 8.730469 37.292969 8.925781 37.546875 9.175781 C 37.792969 9.417969 37.988281 9.714844 38.128906 10.058594 C 38.273438 10.40625 38.34375 10.765625 38.34375 11.136719 C 38.34375 11.503906 38.273438 11.855469 38.132812 12.183594 C 37.992188 12.511719 37.796875 12.796875 37.546875 13.042969 C 37.292969 13.289062 36.996094 13.480469 36.660156 13.617188 C 36.324219 13.753906 35.96875 13.820312 35.601562 13.820312 L 34 13.820312 L 34 15.410156 C 34 15.546875 33.949219 15.664062 33.851562 15.757812 C 33.753906 15.851562 33.636719 15.898438 33.496094 15.898438 Z M 34 12.828125 L 35.621094 12.828125 C 35.859375 12.828125 36.085938 12.78125 36.292969 12.6875 C 36.503906 12.59375 36.6875 12.464844 36.847656 12.304688 C 37.003906 12.148438 37.121094 11.972656 37.203125 11.769531 C 37.285156 11.566406 37.328125 11.355469 37.328125 11.136719 C 37.328125 10.917969 37.285156 10.703125 37.199219 10.484375 C 37.109375 10.269531 36.992188 10.082031 36.839844 9.921875 C 36.683594 9.757812 36.5 9.632812 36.289062 9.535156 C 36.082031 9.441406 35.859375 9.394531 35.625 9.394531 L 34 9.394531 Z M 34 12.828125 " fill-opacity="1" fill-rule="nonzero"/><path fill="#5170ff" d="M 40.796875 15.921875 C 40.425781 15.921875 40.070312 15.851562 39.738281 15.710938 C 39.40625 15.570312 39.113281 15.371094 38.859375 15.113281 C 38.609375 14.859375 38.410156 14.566406 38.269531 14.230469 C 38.128906 13.894531 38.058594 13.539062 38.058594 13.160156 C 38.058594 12.78125 38.128906 12.425781 38.269531 12.089844 C 38.410156 11.753906 38.609375 11.460938 38.859375 11.203125 C 39.113281 10.945312 39.40625 10.746094 39.738281 10.605469 C 40.070312 10.464844 40.425781 10.390625 40.796875 10.390625 C 41.167969 10.390625 41.519531 10.460938 41.851562 10.601562 C 42.183594 10.738281 42.476562 10.9375 42.730469 11.191406 C 42.976562 11.441406 43.171875 11.734375 43.3125 12.066406 C 43.457031 12.398438 43.53125 12.753906 43.535156 13.128906 L 43.535156 15.378906 C 43.535156 15.523438 43.488281 15.644531 43.390625 15.746094 C 43.292969 15.84375 43.171875 15.894531 43.03125 15.894531 C 42.886719 15.894531 42.769531 15.847656 42.675781 15.75 C 42.585938 15.648438 42.539062 15.527344 42.539062 15.378906 L 42.535156 15.300781 C 42.292969 15.5 42.027344 15.652344 41.730469 15.761719 C 41.429688 15.867188 41.121094 15.921875 40.796875 15.921875 Z M 40.796875 14.917969 C 41.042969 14.917969 41.269531 14.875 41.480469 14.785156 C 41.691406 14.691406 41.878906 14.566406 42.046875 14.398438 C 42.199219 14.238281 42.324219 14.050781 42.410156 13.835938 C 42.496094 13.625 42.539062 13.398438 42.539062 13.160156 C 42.539062 12.921875 42.496094 12.695312 42.410156 12.484375 C 42.324219 12.269531 42.199219 12.082031 42.046875 11.917969 C 41.878906 11.757812 41.691406 11.632812 41.476562 11.542969 C 41.265625 11.453125 41.039062 11.40625 40.796875 11.40625 C 40.554688 11.40625 40.328125 11.453125 40.117188 11.542969 C 39.90625 11.632812 39.722656 11.757812 39.566406 11.917969 C 39.40625 12.082031 39.28125 12.269531 39.191406 12.484375 C 39.101562 12.695312 39.058594 12.921875 39.058594 13.160156 C 39.058594 13.398438 39.101562 13.625 39.191406 13.835938 C 39.28125 14.050781 39.40625 14.238281 39.566406 14.398438 C 39.722656 14.566406 39.90625 14.691406 40.117188 14.785156 C 40.328125 14.875 40.554688 14.917969 40.796875 14.917969 Z M 40.796875 14.917969 " fill-opacity="1" fill-rule="nonzero"/><path fill="#5170ff" d="M 48.929688 17.5625 C 48.789062 17.5625 48.671875 17.515625 48.578125 17.417969 C 48.484375 17.324219 48.441406 17.203125 48.441406 17.0625 L 48.441406 15.070312 C 48.203125 15.308594 47.9375 15.496094 47.640625 15.628906 C 47.351562 15.761719 47.039062 15.824219 46.707031 15.824219 C 46.332031 15.824219 45.976562 15.757812 45.640625 15.613281 C 45.304688 15.472656 45.011719 15.273438 44.761719 15.023438 C 44.507812 14.769531 44.308594 14.476562 44.164062 14.140625 C 44.023438 13.804688 43.953125 13.445312 43.953125 13.074219 L 43.953125 10.894531 C 43.953125 10.75 44.003906 10.628906 44.101562 10.535156 C 44.199219 10.4375 44.320312 10.386719 44.464844 10.386719 C 44.605469 10.386719 44.722656 10.4375 44.820312 10.535156 C 44.917969 10.628906 44.96875 10.75 44.96875 10.894531 L 44.96875 13.097656 C 44.96875 13.328125 45.011719 13.546875 45.101562 13.753906 C 45.191406 13.964844 45.320312 14.144531 45.480469 14.300781 C 45.644531 14.464844 45.828125 14.589844 46.039062 14.679688 C 46.25 14.769531 46.472656 14.8125 46.707031 14.8125 C 46.933594 14.8125 47.148438 14.769531 47.359375 14.679688 C 47.570312 14.589844 47.753906 14.464844 47.917969 14.300781 C 48.078125 14.144531 48.207031 13.964844 48.296875 13.753906 C 48.394531 13.546875 48.441406 13.328125 48.441406 13.097656 L 48.441406 10.894531 C 48.441406 10.75 48.488281 10.628906 48.585938 10.535156 C 48.683594 10.4375 48.800781 10.386719 48.941406 10.386719 C 49.070312 10.386719 49.1875 10.4375 49.300781 10.535156 C 49.398438 10.628906 49.445312 10.75 49.445312 10.894531 L 49.445312 17.0625 C 49.445312 17.203125 49.394531 17.324219 49.296875 17.417969 C 49.195312 17.515625 49.074219 17.5625 48.929688 17.5625 Z M 48.929688 17.5625 " fill-opacity="1" fill-rule="nonzero"/><path fill="#ffffff" d="M 50.296875 15.855469 C 50.15625 15.855469 50.035156 15.808594 49.9375 15.710938 C 49.839844 15.617188 49.789062 15.5 49.789062 15.355469 L 49.789062 12.085938 C 49.789062 11.835938 49.839844 11.597656 49.9375 11.371094 C 50.035156 11.144531 50.167969 10.945312 50.339844 10.773438 C 50.511719 10.601562 50.707031 10.46875 50.933594 10.371094 C 51.15625 10.273438 51.394531 10.226562 51.648438 10.226562 C 51.910156 10.226562 52.160156 10.28125 52.394531 10.386719 C 52.632812 10.492188 52.835938 10.636719 53.011719 10.820312 C 53.183594 10.636719 53.390625 10.492188 53.625 10.386719 C 53.859375 10.28125 54.105469 10.226562 54.371094 10.226562 C 54.621094 10.226562 54.863281 10.273438 55.09375 10.371094 C 55.324219 10.46875 55.527344 10.601562 55.707031 10.773438 C 55.878906 10.945312 56.015625 11.148438 56.117188 11.375 C 56.214844 11.601562 56.265625 11.839844 56.265625 12.085938 L 56.265625 15.355469 C 56.265625 15.5 56.21875 15.617188 56.121094 15.710938 C 56.023438 15.808594 55.910156 15.855469 55.773438 15.855469 C 55.628906 15.855469 55.511719 15.808594 55.414062 15.710938 C 55.320312 15.617188 55.273438 15.5 55.273438 15.355469 L 55.273438 12.113281 C 55.265625 12 55.242188 11.894531 55.191406 11.789062 C 55.144531 11.683594 55.082031 11.589844 55 11.507812 C 54.917969 11.429688 54.820312 11.367188 54.710938 11.324219 C 54.601562 11.28125 54.492188 11.257812 54.378906 11.257812 C 54.152344 11.257812 53.957031 11.335938 53.792969 11.488281 C 53.628906 11.644531 53.539062 11.832031 53.523438 12.058594 C 53.523438 12.058594 53.527344 12.082031 53.527344 12.121094 L 53.527344 15.34375 C 53.527344 15.484375 53.476562 15.601562 53.378906 15.699219 C 53.285156 15.800781 53.164062 15.851562 53.027344 15.851562 C 52.890625 15.851562 52.773438 15.800781 52.675781 15.703125 C 52.578125 15.605469 52.53125 15.484375 52.53125 15.34375 L 52.53125 12.148438 C 52.53125 11.902344 52.449219 11.691406 52.285156 11.519531 C 52.109375 11.339844 51.902344 11.25 51.667969 11.25 C 51.449219 11.25 51.253906 11.324219 51.085938 11.472656 C 50.921875 11.617188 50.824219 11.796875 50.796875 12.007812 C 50.796875 12.027344 50.800781 12.046875 50.800781 12.0625 C 50.800781 12.078125 50.804688 12.089844 50.804688 12.101562 L 50.789062 15.355469 C 50.789062 15.5 50.738281 15.617188 50.640625 15.710938 C 50.546875 15.808594 50.429688 15.855469 50.296875 15.855469 Z M 50.296875 15.855469 " fill-opacity="1" fill-rule="nonzero"/><path fill="#ffffff" d="M 59.175781 15.921875 C 58.804688 15.921875 58.445312 15.851562 58.105469 15.707031 C 57.765625 15.566406 57.46875 15.367188 57.21875 15.113281 C 56.960938 14.859375 56.761719 14.5625 56.613281 14.226562 C 56.472656 13.886719 56.402344 13.53125 56.402344 13.160156 C 56.402344 12.78125 56.472656 12.425781 56.613281 12.085938 C 56.761719 11.75 56.960938 11.453125 57.21875 11.203125 C 57.46875 10.949219 57.765625 10.75 58.105469 10.605469 C 58.445312 10.464844 58.804688 10.390625 59.175781 10.390625 C 59.546875 10.390625 59.898438 10.464844 60.238281 10.605469 C 60.574219 10.746094 60.871094 10.941406 61.128906 11.195312 C 61.382812 11.449219 61.582031 11.742188 61.726562 12.082031 C 61.871094 12.417969 61.945312 12.769531 61.953125 13.136719 C 61.953125 13.273438 61.90625 13.386719 61.816406 13.480469 C 61.722656 13.570312 61.605469 13.613281 61.460938 13.613281 L 57.511719 13.613281 C 57.554688 13.804688 57.625 13.980469 57.726562 14.144531 C 57.828125 14.304688 57.953125 14.449219 58.101562 14.574219 C 58.410156 14.832031 58.769531 14.957031 59.175781 14.957031 C 59.363281 14.957031 59.523438 14.941406 59.65625 14.910156 C 59.785156 14.875 59.914062 14.820312 60.046875 14.738281 C 60.152344 14.679688 60.253906 14.648438 60.347656 14.648438 C 60.476562 14.648438 60.589844 14.699219 60.691406 14.800781 C 60.792969 14.90625 60.84375 15.03125 60.84375 15.167969 C 60.84375 15.398438 60.675781 15.585938 60.34375 15.722656 C 60.191406 15.789062 60.015625 15.839844 59.8125 15.871094 C 59.609375 15.90625 59.398438 15.921875 59.175781 15.921875 Z M 57.484375 12.773438 L 60.925781 12.773438 C 60.855469 12.359375 60.65625 12.019531 60.335938 11.757812 C 60.179688 11.628906 60.003906 11.527344 59.808594 11.457031 C 59.613281 11.382812 59.410156 11.347656 59.191406 11.347656 C 58.742188 11.347656 58.363281 11.484375 58.054688 11.761719 C 57.90625 11.890625 57.78125 12.039062 57.679688 12.214844 C 57.582031 12.390625 57.515625 12.578125 57.484375 12.773438 Z M 57.484375 12.773438 " fill-opacity="1" fill-rule="nonzero"/><path fill="#ffffff" d="M 62.539062 15.855469 C 62.394531 15.855469 62.273438 15.808594 62.183594 15.710938 C 62.074219 15.617188 62.019531 15.5 62.019531 15.359375 L 62.019531 13.058594 C 62.019531 12.695312 62.085938 12.351562 62.21875 12.027344 C 62.351562 11.703125 62.535156 11.417969 62.773438 11.171875 C 63.019531 10.929688 63.296875 10.734375 63.613281 10.597656 C 63.929688 10.460938 64.265625 10.390625 64.625 10.390625 C 64.988281 10.390625 65.328125 10.460938 65.648438 10.597656 C 65.964844 10.734375 66.25 10.929688 66.496094 11.171875 C 66.730469 11.417969 66.917969 11.703125 67.050781 12.027344 C 67.179688 12.351562 67.25 12.695312 67.25 13.058594 L 67.25 15.359375 C 67.25 15.503906 67.199219 15.625 67.105469 15.714844 C 67.011719 15.808594 66.894531 15.855469 66.753906 15.855469 C 66.617188 15.855469 66.496094 15.808594 66.398438 15.714844 C 66.300781 15.625 66.25 15.503906 66.25 15.359375 L 66.25 13.070312 C 66.25 12.84375 66.203125 12.628906 66.121094 12.425781 C 66.039062 12.222656 65.925781 12.042969 65.78125 11.890625 C 65.628906 11.738281 65.453125 11.617188 65.253906 11.53125 C 65.058594 11.445312 64.847656 11.402344 64.625 11.402344 C 64.167969 11.402344 63.785156 11.5625 63.484375 11.878906 C 63.335938 12.03125 63.222656 12.210938 63.144531 12.414062 C 63.0625 12.617188 63.027344 12.832031 63.027344 13.058594 L 63.027344 15.359375 C 63.027344 15.503906 62.976562 15.625 62.882812 15.714844 C 62.792969 15.808594 62.675781 15.855469 62.539062 15.855469 Z M 62.539062 15.855469 " fill-opacity="1" fill-rule="nonzero"/><path fill="#ffffff" d="M 70.5 15.921875 C 70.121094 15.921875 69.761719 15.855469 69.421875 15.714844 C 69.089844 15.578125 68.792969 15.386719 68.539062 15.136719 C 68.285156 14.882812 68.085938 14.589844 67.941406 14.257812 C 67.796875 13.925781 67.726562 13.570312 67.726562 13.191406 L 67.726562 9.261719 C 67.726562 9.121094 67.777344 9 67.878906 8.894531 C 67.976562 8.800781 68.09375 8.75 68.230469 8.75 C 68.371094 8.75 68.492188 8.800781 68.597656 8.894531 C 68.699219 9 68.75 9.121094 68.75 9.261719 L 68.75 10.367188 L 71 10.367188 C 71.136719 10.367188 71.253906 10.417969 71.351562 10.515625 C 71.453125 10.617188 71.503906 10.738281 71.503906 10.878906 C 71.503906 11.011719 71.453125 11.128906 71.355469 11.222656 C 71.261719 11.316406 71.144531 11.359375 71 11.359375 L 68.75 11.359375 L 68.75 13.203125 C 68.75 13.441406 68.796875 13.664062 68.886719 13.875 C 68.972656 14.085938 69.097656 14.269531 69.261719 14.429688 C 69.421875 14.589844 69.605469 14.710938 69.816406 14.796875 C 70.03125 14.882812 70.257812 14.925781 70.5 14.925781 C 70.960938 14.925781 71.335938 14.789062 71.632812 14.515625 C 71.753906 14.402344 71.878906 14.347656 72.011719 14.347656 C 72.125 14.347656 72.230469 14.390625 72.328125 14.480469 C 72.421875 14.570312 72.46875 14.679688 72.46875 14.8125 C 72.46875 14.976562 72.40625 15.121094 72.285156 15.242188 C 71.808594 15.695312 71.214844 15.921875 70.5 15.921875 Z M 70.5 15.921875 " fill-opacity="1" fill-rule="nonzero"/><path fill="#ffffff" d="M 46.894531 20.730469 C 46.855469 20.730469 46.820312 20.71875 46.796875 20.691406 C 46.769531 20.667969 46.757812 20.636719 46.757812 20.601562 L 46.757812 18.863281 C 46.757812 18.828125 46.773438 18.796875 46.800781 18.773438 C 46.824219 18.746094 46.855469 18.730469 46.894531 18.730469 L 47.457031 18.730469 C 47.554688 18.730469 47.648438 18.75 47.734375 18.789062 C 47.824219 18.824219 47.902344 18.875 47.972656 18.941406 C 48.035156 19.007812 48.085938 19.085938 48.125 19.175781 C 48.164062 19.269531 48.179688 19.363281 48.179688 19.460938 C 48.179688 19.5625 48.164062 19.65625 48.125 19.742188 C 48.089844 19.828125 48.039062 19.902344 47.972656 19.96875 C 47.902344 20.03125 47.824219 20.085938 47.734375 20.121094 C 47.648438 20.160156 47.550781 20.179688 47.453125 20.179688 L 47.027344 20.179688 L 47.027344 20.601562 C 47.027344 20.636719 47.011719 20.667969 46.984375 20.691406 C 46.960938 20.71875 46.929688 20.730469 46.894531 20.730469 Z M 47.027344 19.910156 L 47.457031 19.910156 C 47.519531 19.910156 47.578125 19.898438 47.632812 19.875 C 47.691406 19.851562 47.742188 19.816406 47.785156 19.773438 C 47.824219 19.734375 47.855469 19.6875 47.878906 19.632812 C 47.902344 19.578125 47.914062 19.519531 47.914062 19.460938 C 47.914062 19.402344 47.902344 19.347656 47.878906 19.289062 C 47.855469 19.230469 47.824219 19.179688 47.785156 19.140625 C 47.742188 19.097656 47.691406 19.0625 47.632812 19.039062 C 47.578125 19.011719 47.523438 19 47.460938 19 L 47.027344 19 Z M 47.027344 19.910156 " fill-opacity="1" fill-rule="nonzero"/><path fill="#ffffff" d="M 48.835938 20.734375 C 48.738281 20.734375 48.640625 20.714844 48.554688 20.679688 C 48.464844 20.644531 48.386719 20.589844 48.316406 20.519531 C 48.25 20.453125 48.195312 20.371094 48.15625 20.285156 C 48.117188 20.195312 48.097656 20.101562 48.097656 20 C 48.097656 19.902344 48.117188 19.804688 48.15625 19.714844 C 48.195312 19.628906 48.25 19.550781 48.316406 19.480469 C 48.386719 19.410156 48.464844 19.359375 48.554688 19.320312 C 48.640625 19.28125 48.738281 19.261719 48.835938 19.261719 C 48.9375 19.261719 49.03125 19.28125 49.121094 19.324219 C 49.210938 19.363281 49.289062 19.414062 49.355469 19.480469 C 49.421875 19.550781 49.476562 19.628906 49.515625 19.714844 C 49.550781 19.804688 49.570312 19.902344 49.570312 20 C 49.570312 20.101562 49.550781 20.195312 49.515625 20.285156 C 49.476562 20.371094 49.421875 20.453125 49.355469 20.519531 C 49.289062 20.585938 49.210938 20.640625 49.121094 20.675781 C 49.03125 20.714844 48.9375 20.734375 48.835938 20.734375 Z M 48.835938 20.46875 C 48.902344 20.46875 48.960938 20.457031 49.019531 20.433594 C 49.074219 20.410156 49.125 20.375 49.167969 20.332031 C 49.210938 20.289062 49.246094 20.238281 49.265625 20.183594 C 49.289062 20.125 49.304688 20.066406 49.304688 20 C 49.304688 19.9375 49.289062 19.878906 49.265625 19.820312 C 49.246094 19.765625 49.210938 19.714844 49.167969 19.671875 C 49.125 19.628906 49.074219 19.59375 49.019531 19.570312 C 48.960938 19.546875 48.902344 19.535156 48.835938 19.535156 C 48.773438 19.535156 48.710938 19.546875 48.65625 19.570312 C 48.597656 19.59375 48.546875 19.628906 48.503906 19.671875 C 48.460938 19.714844 48.425781 19.765625 48.402344 19.820312 C 48.378906 19.878906 48.367188 19.9375 48.367188 20 C 48.367188 20.066406 48.378906 20.125 48.402344 20.183594 C 48.425781 20.238281 48.460938 20.289062 48.503906 20.332031 C 48.546875 20.375 48.597656 20.410156 48.65625 20.433594 C 48.710938 20.457031 48.773438 20.46875 48.835938 20.46875 Z M 48.835938 20.46875 " fill-opacity="1" fill-rule="nonzero"/><path fill="#ffffff" d="M 50.121094 20.734375 C 50.054688 20.734375 49.992188 20.722656 49.933594 20.695312 C 49.871094 20.671875 49.820312 20.636719 49.773438 20.585938 C 49.726562 20.546875 49.691406 20.492188 49.664062 20.433594 C 49.640625 20.371094 49.628906 20.308594 49.628906 20.238281 L 49.628906 19.394531 C 49.628906 19.359375 49.640625 19.328125 49.664062 19.304688 C 49.691406 19.277344 49.722656 19.265625 49.761719 19.265625 C 49.796875 19.265625 49.828125 19.277344 49.855469 19.304688 C 49.878906 19.332031 49.890625 19.363281 49.890625 19.394531 L 49.894531 20.234375 C 49.894531 20.234375 49.894531 20.238281 49.894531 20.242188 C 49.894531 20.25 49.894531 20.253906 49.894531 20.257812 C 49.902344 20.320312 49.929688 20.367188 49.972656 20.40625 C 50.015625 20.445312 50.066406 20.460938 50.125 20.460938 C 50.191406 20.460938 50.246094 20.4375 50.292969 20.390625 C 50.335938 20.339844 50.355469 20.28125 50.355469 20.214844 L 50.355469 19.398438 C 50.355469 19.363281 50.371094 19.332031 50.394531 19.308594 C 50.421875 19.28125 50.453125 19.265625 50.488281 19.265625 C 50.523438 19.265625 50.558594 19.277344 50.585938 19.304688 C 50.609375 19.332031 50.621094 19.363281 50.621094 19.398438 L 50.621094 20.230469 C 50.621094 20.242188 50.621094 20.246094 50.621094 20.246094 C 50.625 20.308594 50.648438 20.359375 50.695312 20.398438 C 50.734375 20.4375 50.789062 20.457031 50.847656 20.457031 C 50.878906 20.457031 50.910156 20.453125 50.9375 20.441406 C 50.964844 20.429688 50.992188 20.410156 51.019531 20.390625 C 51.0625 20.34375 51.085938 20.289062 51.085938 20.222656 L 51.085938 19.394531 C 51.085938 19.359375 51.097656 19.328125 51.125 19.304688 C 51.148438 19.277344 51.179688 19.265625 51.214844 19.265625 C 51.253906 19.265625 51.285156 19.277344 51.308594 19.304688 C 51.335938 19.328125 51.351562 19.359375 51.351562 19.394531 L 51.351562 20.238281 C 51.351562 20.308594 51.335938 20.371094 51.308594 20.429688 C 51.28125 20.488281 51.246094 20.542969 51.199219 20.585938 C 51.152344 20.636719 51.101562 20.671875 51.039062 20.695312 C 50.976562 20.722656 50.914062 20.734375 50.847656 20.734375 C 50.773438 20.734375 50.707031 20.71875 50.644531 20.691406 C 50.582031 20.667969 50.527344 20.628906 50.484375 20.574219 C 50.4375 20.628906 50.382812 20.667969 50.320312 20.691406 C 50.257812 20.71875 50.191406 20.734375 50.121094 20.734375 Z M 50.121094 20.734375 " fill-opacity="1" fill-rule="nonzero"/><path fill="#ffffff" d="M 52.121094 20.734375 C 52.023438 20.734375 51.929688 20.714844 51.839844 20.675781 C 51.75 20.640625 51.671875 20.585938 51.605469 20.519531 C 51.535156 20.453125 51.480469 20.371094 51.441406 20.285156 C 51.402344 20.195312 51.386719 20.101562 51.386719 20 C 51.386719 19.902344 51.402344 19.804688 51.441406 19.714844 C 51.480469 19.625 51.535156 19.546875 51.605469 19.480469 C 51.671875 19.414062 51.75 19.363281 51.839844 19.324219 C 51.929688 19.28125 52.023438 19.261719 52.121094 19.261719 C 52.222656 19.261719 52.316406 19.28125 52.40625 19.320312 C 52.496094 19.359375 52.574219 19.410156 52.644531 19.476562 C 52.710938 19.546875 52.765625 19.621094 52.804688 19.710938 C 52.839844 19.800781 52.859375 19.898438 52.863281 19.996094 C 52.863281 20.03125 52.851562 20.0625 52.828125 20.085938 C 52.804688 20.109375 52.773438 20.121094 52.734375 20.121094 L 51.679688 20.121094 C 51.691406 20.171875 51.710938 20.222656 51.738281 20.261719 C 51.765625 20.308594 51.796875 20.34375 51.839844 20.375 C 51.921875 20.445312 52.015625 20.476562 52.121094 20.476562 C 52.171875 20.476562 52.21875 20.472656 52.253906 20.464844 C 52.285156 20.457031 52.320312 20.445312 52.359375 20.421875 C 52.382812 20.40625 52.410156 20.398438 52.433594 20.398438 C 52.46875 20.398438 52.5 20.410156 52.527344 20.4375 C 52.554688 20.464844 52.570312 20.496094 52.570312 20.535156 C 52.570312 20.597656 52.523438 20.644531 52.433594 20.679688 C 52.394531 20.699219 52.347656 20.714844 52.292969 20.722656 C 52.238281 20.730469 52.179688 20.734375 52.121094 20.734375 Z M 51.671875 19.898438 L 52.589844 19.898438 C 52.570312 19.789062 52.519531 19.699219 52.433594 19.628906 C 52.390625 19.59375 52.34375 19.566406 52.292969 19.546875 C 52.242188 19.527344 52.1875 19.519531 52.128906 19.519531 C 52.007812 19.519531 51.90625 19.554688 51.828125 19.628906 C 51.785156 19.664062 51.75 19.703125 51.726562 19.753906 C 51.699219 19.800781 51.683594 19.847656 51.671875 19.898438 Z M 51.671875 19.898438 " fill-opacity="1" fill-rule="nonzero"/><path fill="#ffffff" d="M 53.050781 20.71875 C 53.011719 20.71875 52.976562 20.703125 52.953125 20.679688 C 52.925781 20.65625 52.910156 20.621094 52.910156 20.582031 L 52.910156 20.03125 C 52.910156 19.929688 52.929688 19.832031 52.96875 19.742188 C 53.007812 19.644531 53.0625 19.5625 53.132812 19.488281 C 53.207031 19.417969 53.289062 19.363281 53.382812 19.324219 C 53.476562 19.28125 53.574219 19.261719 53.675781 19.261719 L 53.683594 19.261719 C 53.726562 19.261719 53.761719 19.277344 53.785156 19.304688 C 53.8125 19.328125 53.824219 19.359375 53.824219 19.394531 C 53.824219 19.433594 53.808594 19.46875 53.78125 19.492188 C 53.753906 19.519531 53.722656 19.53125 53.683594 19.53125 L 53.675781 19.53125 C 53.609375 19.53125 53.542969 19.542969 53.484375 19.570312 C 53.421875 19.59375 53.371094 19.628906 53.324219 19.675781 C 53.277344 19.722656 53.242188 19.78125 53.214844 19.84375 C 53.1875 19.902344 53.175781 19.964844 53.175781 20.03125 L 53.175781 20.582031 C 53.175781 20.621094 53.164062 20.65625 53.136719 20.679688 C 53.113281 20.703125 53.082031 20.71875 53.050781 20.71875 Z M 53.050781 20.71875 " fill-opacity="1" fill-rule="nonzero"/><path fill="#ffffff" d="M 54.4375 20.734375 C 54.339844 20.734375 54.246094 20.714844 54.15625 20.675781 C 54.066406 20.640625 53.988281 20.585938 53.917969 20.519531 C 53.851562 20.453125 53.796875 20.371094 53.757812 20.285156 C 53.71875 20.195312 53.699219 20.101562 53.699219 20 C 53.699219 19.902344 53.71875 19.804688 53.757812 19.714844 C 53.796875 19.625 53.851562 19.546875 53.917969 19.480469 C 53.988281 19.414062 54.066406 19.363281 54.15625 19.324219 C 54.246094 19.28125 54.339844 19.261719 54.4375 19.261719 C 54.539062 19.261719 54.632812 19.28125 54.722656 19.320312 C 54.8125 19.359375 54.890625 19.410156 54.960938 19.476562 C 55.027344 19.546875 55.082031 19.621094 55.117188 19.710938 C 55.15625 19.800781 55.175781 19.898438 55.179688 19.996094 C 55.179688 20.03125 55.167969 20.0625 55.144531 20.085938 C 55.117188 20.109375 55.085938 20.121094 55.050781 20.121094 L 53.996094 20.121094 C 54.007812 20.171875 54.027344 20.222656 54.054688 20.261719 C 54.078125 20.308594 54.113281 20.34375 54.15625 20.375 C 54.234375 20.445312 54.328125 20.476562 54.4375 20.476562 C 54.488281 20.476562 54.53125 20.472656 54.566406 20.464844 C 54.601562 20.457031 54.636719 20.445312 54.671875 20.421875 C 54.699219 20.40625 54.726562 20.398438 54.75 20.398438 C 54.785156 20.398438 54.816406 20.410156 54.84375 20.4375 C 54.871094 20.464844 54.882812 20.496094 54.882812 20.535156 C 54.882812 20.597656 54.839844 20.644531 54.75 20.679688 C 54.710938 20.699219 54.660156 20.714844 54.609375 20.722656 C 54.554688 20.730469 54.496094 20.734375 54.4375 20.734375 Z M 53.988281 19.898438 L 54.902344 19.898438 C 54.886719 19.789062 54.832031 19.699219 54.75 19.628906 C 54.707031 19.59375 54.660156 19.566406 54.609375 19.546875 C 54.558594 19.527344 54.503906 19.519531 54.445312 19.519531 C 54.324219 19.519531 54.222656 19.554688 54.140625 19.628906 C 54.101562 19.664062 54.066406 19.703125 54.042969 19.753906 C 54.015625 19.800781 54 19.847656 53.988281 19.898438 Z M 53.988281 19.898438 " fill-opacity="1" fill-rule="nonzero"/><path fill="#ffffff" d="M 55.894531 20.734375 C 55.796875 20.734375 55.703125 20.714844 55.613281 20.679688 C 55.523438 20.644531 55.445312 20.589844 55.378906 20.519531 C 55.308594 20.453125 55.253906 20.371094 55.214844 20.285156 C 55.175781 20.195312 55.15625 20.101562 55.15625 20 C 55.15625 19.902344 55.175781 19.804688 55.214844 19.714844 C 55.253906 19.628906 55.308594 19.550781 55.378906 19.480469 C 55.445312 19.410156 55.523438 19.359375 55.613281 19.320312 C 55.703125 19.28125 55.796875 19.261719 55.894531 19.261719 C 56.011719 19.261719 56.109375 19.285156 56.1875 19.335938 C 56.261719 19.382812 56.316406 19.449219 56.363281 19.535156 L 56.363281 18.875 C 56.363281 18.832031 56.375 18.800781 56.398438 18.777344 C 56.425781 18.75 56.457031 18.734375 56.496094 18.734375 C 56.53125 18.734375 56.5625 18.75 56.589844 18.777344 C 56.613281 18.800781 56.628906 18.832031 56.628906 18.875 L 56.628906 20.007812 C 56.628906 20.109375 56.609375 20.203125 56.570312 20.292969 C 56.53125 20.378906 56.480469 20.457031 56.414062 20.523438 C 56.347656 20.589844 56.265625 20.644531 56.175781 20.679688 C 56.085938 20.714844 55.992188 20.734375 55.894531 20.734375 Z M 55.894531 20.46875 C 55.960938 20.46875 56.019531 20.457031 56.078125 20.433594 C 56.136719 20.410156 56.183594 20.375 56.226562 20.332031 C 56.269531 20.289062 56.304688 20.238281 56.324219 20.183594 C 56.347656 20.125 56.363281 20.066406 56.363281 20 C 56.363281 19.9375 56.347656 19.878906 56.324219 19.820312 C 56.304688 19.765625 56.269531 19.714844 56.226562 19.671875 C 56.183594 19.628906 56.136719 19.59375 56.078125 19.570312 C 56.019531 19.546875 55.960938 19.535156 55.894531 19.535156 C 55.832031 19.535156 55.769531 19.546875 55.714844 19.570312 C 55.65625 19.59375 55.605469 19.628906 55.5625 19.671875 C 55.519531 19.714844 55.488281 19.765625 55.460938 19.820312 C 55.4375 19.878906 55.425781 19.9375 55.425781 20 C 55.425781 20.066406 55.4375 20.125 55.460938 20.183594 C 55.488281 20.238281 55.519531 20.289062 55.5625 20.332031 C 55.605469 20.375 55.65625 20.410156 55.714844 20.433594 C 55.769531 20.457031 55.832031 20.46875 55.894531 20.46875 Z M 55.894531 20.46875 " fill-opacity="1" fill-rule="nonzero"/><path fill="#ffffff" d="M 58.027344 20.734375 C 57.925781 20.734375 57.832031 20.714844 57.738281 20.675781 C 57.648438 20.640625 57.574219 20.585938 57.507812 20.519531 C 57.4375 20.453125 57.382812 20.371094 57.347656 20.285156 C 57.308594 20.195312 57.289062 20.101562 57.289062 20 L 57.289062 18.871094 C 57.289062 18.835938 57.304688 18.800781 57.332031 18.773438 C 57.355469 18.746094 57.386719 18.734375 57.421875 18.734375 C 57.460938 18.734375 57.492188 18.75 57.515625 18.777344 C 57.539062 18.800781 57.554688 18.832031 57.554688 18.871094 L 57.554688 19.546875 C 57.589844 19.464844 57.65625 19.394531 57.742188 19.34375 C 57.785156 19.320312 57.832031 19.300781 57.882812 19.285156 C 57.929688 19.269531 57.980469 19.261719 58.027344 19.261719 C 58.125 19.261719 58.222656 19.28125 58.3125 19.324219 C 58.398438 19.363281 58.476562 19.414062 58.546875 19.480469 C 58.613281 19.550781 58.664062 19.628906 58.703125 19.714844 C 58.742188 19.804688 58.761719 19.902344 58.761719 20 C 58.761719 20.101562 58.742188 20.195312 58.703125 20.285156 C 58.664062 20.371094 58.613281 20.453125 58.546875 20.519531 C 58.476562 20.585938 58.398438 20.640625 58.3125 20.675781 C 58.222656 20.714844 58.125 20.734375 58.027344 20.734375 Z M 58.027344 20.464844 C 58.09375 20.464844 58.152344 20.453125 58.210938 20.429688 C 58.265625 20.40625 58.316406 20.371094 58.359375 20.332031 C 58.402344 20.289062 58.433594 20.238281 58.457031 20.183594 C 58.480469 20.125 58.492188 20.066406 58.492188 20 C 58.492188 19.933594 58.480469 19.875 58.457031 19.816406 C 58.433594 19.761719 58.402344 19.710938 58.359375 19.667969 C 58.316406 19.625 58.265625 19.59375 58.210938 19.570312 C 58.152344 19.546875 58.09375 19.535156 58.027344 19.535156 C 57.960938 19.535156 57.902344 19.546875 57.84375 19.570312 C 57.789062 19.59375 57.738281 19.625 57.695312 19.667969 C 57.652344 19.710938 57.617188 19.761719 57.59375 19.816406 C 57.570312 19.875 57.558594 19.933594 57.558594 20 C 57.558594 20.066406 57.570312 20.125 57.59375 20.183594 C 57.617188 20.238281 57.652344 20.289062 57.695312 20.332031 C 57.738281 20.371094 57.789062 20.40625 57.84375 20.429688 C 57.902344 20.453125 57.960938 20.464844 58.027344 20.464844 Z M 58.027344 20.464844 " fill-opacity="1" fill-rule="nonzero"/><path fill="#ffffff" d="M 60.121094 21.171875 C 60.082031 21.171875 60.050781 21.15625 60.023438 21.128906 C 60 21.105469 59.988281 21.074219 59.988281 21.039062 L 59.988281 20.511719 C 59.925781 20.574219 59.855469 20.621094 59.777344 20.65625 C 59.699219 20.691406 59.617188 20.710938 59.53125 20.710938 C 59.429688 20.710938 59.335938 20.691406 59.246094 20.652344 C 59.15625 20.613281 59.078125 20.5625 59.011719 20.496094 C 58.945312 20.425781 58.890625 20.347656 58.851562 20.257812 C 58.816406 20.171875 58.796875 20.078125 58.796875 19.980469 L 58.796875 19.394531 C 58.796875 19.359375 58.808594 19.328125 58.832031 19.304688 C 58.859375 19.277344 58.894531 19.261719 58.933594 19.261719 C 58.96875 19.261719 59 19.277344 59.027344 19.304688 C 59.054688 19.328125 59.066406 19.359375 59.066406 19.394531 L 59.066406 19.984375 C 59.066406 20.046875 59.078125 20.105469 59.101562 20.160156 C 59.125 20.214844 59.160156 20.261719 59.203125 20.304688 C 59.246094 20.347656 59.296875 20.378906 59.351562 20.40625 C 59.410156 20.429688 59.46875 20.441406 59.53125 20.441406 C 59.589844 20.441406 59.644531 20.429688 59.699219 20.40625 C 59.757812 20.378906 59.808594 20.347656 59.851562 20.304688 C 59.894531 20.261719 59.925781 20.214844 59.953125 20.160156 C 59.976562 20.105469 59.988281 20.046875 59.988281 19.984375 L 59.988281 19.394531 C 59.988281 19.359375 60 19.328125 60.027344 19.304688 C 60.054688 19.277344 60.085938 19.261719 60.121094 19.261719 C 60.15625 19.261719 60.1875 19.277344 60.21875 19.304688 C 60.246094 19.328125 60.257812 19.359375 60.257812 19.394531 L 60.257812 21.039062 C 60.257812 21.074219 60.246094 21.105469 60.21875 21.128906 C 60.191406 21.15625 60.160156 21.171875 60.121094 21.171875 Z M 60.121094 21.171875 " fill-opacity="1" fill-rule="nonzero"/><path fill="#ffffff" d="M 61.648438 20.734375 C 61.546875 20.734375 61.453125 20.714844 61.363281 20.675781 C 61.277344 20.640625 61.199219 20.585938 61.136719 20.519531 C 61.070312 20.449219 61.019531 20.367188 60.980469 20.28125 C 60.945312 20.1875 60.925781 20.09375 60.925781 19.992188 L 60.925781 19.46875 C 60.925781 19.367188 60.945312 19.269531 60.980469 19.179688 C 61.019531 19.089844 61.070312 19.011719 61.136719 18.941406 C 61.199219 18.875 61.277344 18.824219 61.363281 18.785156 C 61.453125 18.742188 61.546875 18.722656 61.648438 18.722656 C 61.792969 18.722656 61.925781 18.757812 62.035156 18.828125 C 62.132812 18.890625 62.214844 18.976562 62.277344 19.078125 C 62.296875 19.109375 62.308594 19.140625 62.308594 19.164062 C 62.308594 19.199219 62.296875 19.230469 62.269531 19.257812 C 62.242188 19.285156 62.210938 19.300781 62.171875 19.300781 C 62.128906 19.300781 62.097656 19.28125 62.078125 19.25 C 62.027344 19.164062 61.976562 19.101562 61.917969 19.0625 C 61.84375 19.019531 61.753906 18.996094 61.648438 18.996094 C 61.582031 18.996094 61.519531 19.007812 61.464844 19.03125 C 61.410156 19.054688 61.363281 19.089844 61.324219 19.132812 C 61.28125 19.175781 61.25 19.226562 61.230469 19.285156 C 61.207031 19.34375 61.195312 19.402344 61.195312 19.464844 L 61.195312 19.992188 C 61.195312 20.054688 61.207031 20.121094 61.230469 20.179688 C 61.25 20.234375 61.28125 20.285156 61.324219 20.324219 C 61.363281 20.371094 61.410156 20.40625 61.464844 20.429688 C 61.519531 20.453125 61.582031 20.464844 61.648438 20.464844 C 61.753906 20.464844 61.84375 20.441406 61.917969 20.394531 C 61.976562 20.351562 62.03125 20.292969 62.078125 20.210938 C 62.09375 20.179688 62.125 20.160156 62.167969 20.160156 C 62.207031 20.160156 62.242188 20.175781 62.269531 20.203125 C 62.296875 20.226562 62.308594 20.257812 62.308594 20.296875 C 62.308594 20.324219 62.296875 20.351562 62.277344 20.375 C 62.210938 20.484375 62.128906 20.570312 62.035156 20.628906 C 61.925781 20.699219 61.792969 20.734375 61.648438 20.734375 Z M 61.648438 20.734375 " fill-opacity="1" fill-rule="nonzero"/><path fill="#ffffff" d="M 63.640625 20.71875 L 62.496094 20.71875 C 62.460938 20.71875 62.429688 20.703125 62.40625 20.675781 C 62.378906 20.652344 62.363281 20.621094 62.363281 20.582031 C 62.363281 20.550781 62.378906 20.523438 62.40625 20.496094 L 63.320312 19.535156 L 62.523438 19.535156 C 62.484375 19.535156 62.449219 19.523438 62.425781 19.496094 C 62.402344 19.472656 62.386719 19.441406 62.386719 19.402344 C 62.386719 19.367188 62.402344 19.335938 62.425781 19.3125 C 62.449219 19.285156 62.484375 19.269531 62.523438 19.269531 L 63.609375 19.269531 C 63.617188 19.269531 63.632812 19.273438 63.648438 19.28125 C 63.664062 19.289062 63.679688 19.296875 63.6875 19.308594 C 63.71875 19.332031 63.734375 19.363281 63.738281 19.398438 L 63.738281 19.414062 C 63.734375 19.449219 63.71875 19.480469 63.691406 19.503906 L 62.78125 20.457031 L 63.640625 20.457031 C 63.679688 20.457031 63.714844 20.46875 63.738281 20.496094 C 63.765625 20.519531 63.777344 20.550781 63.777344 20.582031 C 63.777344 20.621094 63.765625 20.652344 63.738281 20.675781 C 63.714844 20.703125 63.679688 20.71875 63.640625 20.71875 Z M 63.640625 20.71875 " fill-opacity="1" fill-rule="nonzero"/><path fill="#ffffff" d="M 64.421875 20.734375 C 64.324219 20.734375 64.230469 20.714844 64.140625 20.679688 C 64.050781 20.644531 63.972656 20.589844 63.910156 20.519531 C 63.839844 20.453125 63.789062 20.371094 63.75 20.285156 C 63.710938 20.195312 63.695312 20.101562 63.695312 20 C 63.695312 19.902344 63.710938 19.804688 63.75 19.714844 C 63.789062 19.628906 63.839844 19.550781 63.910156 19.480469 C 63.972656 19.410156 64.050781 19.359375 64.140625 19.320312 C 64.230469 19.28125 64.324219 19.261719 64.421875 19.261719 C 64.519531 19.261719 64.613281 19.28125 64.699219 19.320312 C 64.789062 19.359375 64.867188 19.410156 64.933594 19.476562 C 65 19.546875 65.054688 19.621094 65.09375 19.710938 C 65.128906 19.800781 65.148438 19.890625 65.152344 19.992188 L 65.152344 20.589844 C 65.152344 20.628906 65.140625 20.664062 65.113281 20.6875 C 65.085938 20.714844 65.050781 20.730469 65.015625 20.730469 C 64.976562 20.730469 64.945312 20.714844 64.921875 20.6875 C 64.898438 20.664062 64.886719 20.628906 64.886719 20.589844 L 64.886719 20.570312 C 64.820312 20.621094 64.75 20.664062 64.671875 20.691406 C 64.589844 20.71875 64.507812 20.734375 64.421875 20.734375 Z M 64.421875 20.46875 C 64.488281 20.46875 64.546875 20.457031 64.601562 20.433594 C 64.660156 20.410156 64.707031 20.375 64.75 20.332031 C 64.792969 20.289062 64.828125 20.238281 64.847656 20.183594 C 64.875 20.125 64.886719 20.066406 64.886719 20 C 64.886719 19.9375 64.875 19.878906 64.847656 19.820312 C 64.828125 19.765625 64.792969 19.714844 64.75 19.671875 C 64.707031 19.628906 64.660156 19.59375 64.601562 19.570312 C 64.546875 19.546875 64.484375 19.535156 64.421875 19.535156 C 64.359375 19.535156 64.296875 19.546875 64.242188 19.570312 C 64.183594 19.59375 64.136719 19.628906 64.09375 19.671875 C 64.050781 19.714844 64.019531 19.765625 63.992188 19.820312 C 63.972656 19.878906 63.960938 19.9375 63.960938 20 C 63.960938 20.066406 63.972656 20.125 63.992188 20.183594 C 64.019531 20.238281 64.050781 20.289062 64.09375 20.332031 C 64.136719 20.375 64.183594 20.410156 64.242188 20.433594 C 64.296875 20.457031 64.359375 20.46875 64.421875 20.46875 Z M 64.421875 20.46875 " fill-opacity="1" fill-rule="nonzero"/><path fill="#ffffff" d="M 66.585938 21.171875 C 66.546875 21.171875 66.515625 21.15625 66.488281 21.128906 C 66.464844 21.105469 66.453125 21.074219 66.453125 21.039062 L 66.453125 20.511719 C 66.390625 20.574219 66.320312 20.621094 66.242188 20.65625 C 66.164062 20.691406 66.082031 20.710938 65.996094 20.710938 C 65.894531 20.710938 65.800781 20.691406 65.710938 20.652344 C 65.621094 20.613281 65.542969 20.5625 65.476562 20.496094 C 65.410156 20.425781 65.355469 20.347656 65.320312 20.257812 C 65.28125 20.171875 65.261719 20.078125 65.261719 19.980469 L 65.261719 19.394531 C 65.261719 19.359375 65.273438 19.328125 65.296875 19.304688 C 65.324219 19.277344 65.359375 19.261719 65.398438 19.261719 C 65.433594 19.261719 65.464844 19.277344 65.492188 19.304688 C 65.519531 19.328125 65.535156 19.359375 65.535156 19.394531 L 65.535156 19.984375 C 65.535156 20.046875 65.542969 20.105469 65.566406 20.160156 C 65.589844 20.214844 65.625 20.261719 65.667969 20.304688 C 65.710938 20.347656 65.761719 20.378906 65.816406 20.40625 C 65.875 20.429688 65.933594 20.441406 65.996094 20.441406 C 66.054688 20.441406 66.109375 20.429688 66.164062 20.40625 C 66.222656 20.378906 66.273438 20.347656 66.316406 20.304688 C 66.359375 20.261719 66.394531 20.214844 66.417969 20.160156 C 66.441406 20.105469 66.453125 20.046875 66.453125 19.984375 L 66.453125 19.394531 C 66.453125 19.359375 66.464844 19.328125 66.492188 19.304688 C 66.519531 19.277344 66.550781 19.261719 66.585938 19.261719 C 66.621094 19.261719 66.652344 19.277344 66.683594 19.304688 C 66.710938 19.328125 66.726562 19.359375 66.726562 19.394531 L 66.726562 21.039062 C 66.726562 21.074219 66.710938 21.105469 66.683594 21.128906 C 66.65625 21.15625 66.625 21.171875 66.585938 21.171875 Z M 66.585938 21.171875 " fill-opacity="1" fill-rule="nonzero"/><path fill="#ffffff" d="M 66.988281 20.71875 L 66.984375 20.71875 C 66.953125 20.710938 66.925781 20.695312 66.902344 20.671875 C 66.882812 20.648438 66.871094 20.621094 66.871094 20.585938 L 66.871094 18.863281 C 66.871094 18.824219 66.882812 18.792969 66.910156 18.769531 C 66.933594 18.742188 66.96875 18.730469 67.003906 18.730469 C 67.042969 18.730469 67.074219 18.742188 67.097656 18.769531 C 67.125 18.792969 67.140625 18.824219 67.140625 18.863281 L 67.140625 20.453125 L 67.976562 20.453125 C 68.015625 20.453125 68.046875 20.46875 68.070312 20.496094 C 68.09375 20.519531 68.109375 20.550781 68.109375 20.582031 C 68.109375 20.625 68.09375 20.65625 68.070312 20.679688 C 68.046875 20.703125 68.015625 20.71875 67.976562 20.71875 Z M 66.988281 20.71875 " fill-opacity="1" fill-rule="nonzero"/><path fill="#ffffff" d="M 68.761719 20.734375 C 68.660156 20.734375 68.566406 20.714844 68.476562 20.679688 C 68.386719 20.644531 68.3125 20.589844 68.246094 20.519531 C 68.179688 20.453125 68.125 20.371094 68.089844 20.285156 C 68.050781 20.195312 68.03125 20.101562 68.03125 20 C 68.03125 19.902344 68.050781 19.804688 68.089844 19.714844 C 68.125 19.628906 68.179688 19.550781 68.246094 19.480469 C 68.3125 19.410156 68.386719 19.359375 68.476562 19.320312 C 68.566406 19.28125 68.660156 19.261719 68.761719 19.261719 C 68.859375 19.261719 68.949219 19.28125 69.035156 19.320312 C 69.125 19.359375 69.203125 19.410156 69.273438 19.476562 C 69.339844 19.546875 69.390625 19.621094 69.429688 19.710938 C 69.46875 19.800781 69.488281 19.890625 69.492188 19.992188 L 69.492188 20.589844 C 69.492188 20.628906 69.476562 20.664062 69.449219 20.6875 C 69.421875 20.714844 69.390625 20.730469 69.351562 20.730469 C 69.316406 20.730469 69.285156 20.714844 69.261719 20.6875 C 69.234375 20.664062 69.222656 20.628906 69.222656 20.589844 L 69.222656 20.570312 C 69.160156 20.621094 69.085938 20.664062 69.007812 20.691406 C 68.929688 20.71875 68.847656 20.734375 68.761719 20.734375 Z M 68.761719 20.46875 C 68.828125 20.46875 68.886719 20.457031 68.941406 20.433594 C 68.996094 20.410156 69.046875 20.375 69.089844 20.332031 C 69.132812 20.289062 69.164062 20.238281 69.1875 20.183594 C 69.210938 20.125 69.222656 20.066406 69.222656 20 C 69.222656 19.9375 69.210938 19.878906 69.1875 19.820312 C 69.164062 19.765625 69.132812 19.714844 69.089844 19.671875 C 69.046875 19.628906 68.996094 19.59375 68.941406 19.570312 C 68.882812 19.546875 68.824219 19.535156 68.761719 19.535156 C 68.695312 19.535156 68.636719 19.546875 68.578125 19.570312 C 68.523438 19.59375 68.472656 19.628906 68.433594 19.671875 C 68.390625 19.714844 68.355469 19.765625 68.332031 19.820312 C 68.308594 19.878906 68.300781 19.9375 68.300781 20 C 68.300781 20.066406 68.308594 20.125 68.332031 20.183594 C 68.355469 20.238281 68.390625 20.289062 68.433594 20.332031 C 68.472656 20.375 68.523438 20.410156 68.578125 20.433594 C 68.636719 20.457031 68.695312 20.46875 68.761719 20.46875 Z M 68.761719 20.46875 " fill-opacity="1" fill-rule="nonzero"/><path fill="#ffffff" d="M 70.351562 20.734375 C 70.25 20.734375 70.152344 20.714844 70.0625 20.675781 C 69.972656 20.640625 69.894531 20.585938 69.832031 20.519531 C 69.761719 20.453125 69.707031 20.371094 69.667969 20.285156 C 69.628906 20.195312 69.613281 20.101562 69.613281 20 L 69.613281 18.871094 C 69.613281 18.835938 69.625 18.800781 69.652344 18.773438 C 69.675781 18.746094 69.707031 18.734375 69.746094 18.734375 C 69.785156 18.734375 69.816406 18.75 69.839844 18.777344 C 69.863281 18.800781 69.875 18.832031 69.875 18.871094 L 69.875 19.546875 C 69.914062 19.464844 69.976562 19.394531 70.066406 19.34375 C 70.109375 19.320312 70.15625 19.300781 70.203125 19.285156 C 70.253906 19.269531 70.300781 19.261719 70.351562 19.261719 C 70.449219 19.261719 70.542969 19.28125 70.632812 19.324219 C 70.722656 19.363281 70.800781 19.414062 70.867188 19.480469 C 70.933594 19.550781 70.988281 19.628906 71.027344 19.714844 C 71.0625 19.804688 71.082031 19.902344 71.082031 20 C 71.082031 20.101562 71.0625 20.195312 71.027344 20.285156 C 70.988281 20.371094 70.933594 20.453125 70.867188 20.519531 C 70.800781 20.585938 70.722656 20.640625 70.632812 20.675781 C 70.542969 20.714844 70.449219 20.734375 70.351562 20.734375 Z M 70.351562 20.464844 C 70.414062 20.464844 70.476562 20.453125 70.53125 20.429688 C 70.589844 20.40625 70.636719 20.371094 70.683594 20.332031 C 70.722656 20.289062 70.757812 20.238281 70.777344 20.183594 C 70.804688 20.125 70.816406 20.066406 70.816406 20 C 70.816406 19.933594 70.804688 19.875 70.777344 19.816406 C 70.757812 19.761719 70.722656 19.710938 70.683594 19.667969 C 70.636719 19.625 70.589844 19.59375 70.53125 19.570312 C 70.476562 19.546875 70.414062 19.535156 70.351562 19.535156 C 70.285156 19.535156 70.222656 19.546875 70.167969 19.570312 C 70.109375 19.59375 70.058594 19.625 70.015625 19.667969 C 69.972656 19.710938 69.941406 19.761719 69.917969 19.816406 C 69.890625 19.875 69.878906 19.933594 69.878906 20 C 69.878906 20.066406 69.890625 20.125 69.917969 20.183594 C 69.941406 20.238281 69.972656 20.289062 70.015625 20.332031 C 70.058594 20.371094 70.109375 20.40625 70.167969 20.429688 C 70.222656 20.453125 70.285156 20.464844 70.351562 20.464844 Z M 70.351562 20.464844 " fill-opacity="1" fill-rule="nonzero"/><path fill="#ffffff" d="M 71.828125 20.71875 L 71.203125 20.71875 C 71.167969 20.71875 71.140625 20.703125 71.117188 20.679688 C 71.089844 20.65625 71.078125 20.621094 71.078125 20.582031 C 71.078125 20.542969 71.089844 20.511719 71.109375 20.492188 C 71.136719 20.464844 71.164062 20.453125 71.203125 20.453125 L 71.804688 20.453125 C 71.824219 20.453125 71.847656 20.449219 71.867188 20.441406 C 71.894531 20.433594 71.914062 20.421875 71.929688 20.40625 C 71.96875 20.371094 71.992188 20.332031 71.992188 20.277344 C 71.992188 20.226562 71.972656 20.183594 71.933594 20.152344 C 71.894531 20.128906 71.855469 20.113281 71.808594 20.113281 L 71.523438 20.113281 C 71.46875 20.113281 71.414062 20.101562 71.363281 20.082031 C 71.3125 20.054688 71.265625 20.023438 71.226562 19.980469 C 71.1875 19.941406 71.15625 19.898438 71.136719 19.847656 C 71.117188 19.792969 71.105469 19.738281 71.105469 19.679688 C 71.105469 19.621094 71.117188 19.570312 71.140625 19.519531 C 71.160156 19.46875 71.191406 19.421875 71.230469 19.382812 C 71.265625 19.347656 71.3125 19.316406 71.363281 19.292969 C 71.414062 19.273438 71.46875 19.261719 71.523438 19.261719 L 72.046875 19.261719 C 72.085938 19.261719 72.117188 19.273438 72.140625 19.300781 C 72.167969 19.324219 72.179688 19.355469 72.179688 19.390625 C 72.179688 19.429688 72.167969 19.464844 72.144531 19.488281 C 72.121094 19.515625 72.089844 19.53125 72.054688 19.53125 L 71.527344 19.53125 C 71.484375 19.53125 71.449219 19.546875 71.417969 19.578125 C 71.390625 19.609375 71.375 19.644531 71.375 19.6875 C 71.375 19.734375 71.390625 19.769531 71.417969 19.796875 C 71.453125 19.828125 71.488281 19.84375 71.527344 19.84375 L 71.828125 19.84375 C 71.886719 19.84375 71.945312 19.855469 72 19.878906 C 72.050781 19.902344 72.097656 19.933594 72.136719 19.976562 C 72.175781 20.015625 72.203125 20.0625 72.226562 20.117188 C 72.246094 20.167969 72.257812 20.226562 72.257812 20.285156 C 72.257812 20.40625 72.21875 20.507812 72.136719 20.585938 C 72.097656 20.628906 72.046875 20.660156 71.996094 20.683594 C 71.941406 20.707031 71.886719 20.71875 71.828125 20.71875 Z M 71.828125 20.71875 " fill-opacity="1" fill-rule="nonzero"/></svg>