<svg xmlns="http://www.w3.org/2000/svg" xmlns:xlink="http://www.w3.org/1999/xlink" width="100" zoomAndPan="magnify" viewBox="0 0 75 37.92" height="40" preserveAspectRatio="xMidYMid meet" version="1.0"><defs><clipPath id="06be7d1416"><path d="M 0.078125 8.707031 L 74.921875 8.707031 L 74.921875 21.433594 L 0.078125 21.433594 Z M 0.078125 8.707031 " clip-rule="nonzero"/></clipPath></defs><g clip-path="url(#06be7d1416)"><path fill="#49267f" d="M 53.097656 17.078125 L 50.292969 17.078125 L 51.675781 13.796875 Z M 54.835938 21.375 L 57.902344 21.375 L 57.902344 20.914062 L 52.359375 8.730469 L 51.011719 8.730469 L 45.484375 20.914062 L 45.484375 21.375 L 48.554688 21.375 L 49.273438 19.808594 L 54.117188 19.808594 Z M 5.867188 15.3125 L 3.621094 15.3125 L 3.621094 11.746094 C 4.339844 11.746094 5.128906 11.726562 5.867188 11.746094 C 7.691406 11.761719 7.585938 15.3125 5.867188 15.3125 M 1.980469 21.375 L 3.621094 18.183594 L 5.886719 18.183594 C 11.761719 18.183594 11.761719 8.910156 5.886719 8.890625 L 0.480469 8.890625 L 0.480469 21.375 Z M 21.035156 17.078125 L 18.226562 17.078125 L 19.613281 13.796875 Z M 22.769531 21.375 L 25.839844 21.375 L 25.839844 20.914062 L 20.296875 8.730469 L 18.945312 8.730469 L 13.421875 20.914062 L 13.421875 21.375 L 16.492188 21.375 L 17.210938 19.808594 L 22.050781 19.808594 Z M 35.859375 14.867188 L 33.613281 14.867188 L 33.613281 11.746094 C 34.351562 11.746094 35.121094 11.726562 35.859375 11.746094 C 37.648438 11.761719 37.558594 14.867188 35.859375 14.867188 M 38.453125 16.953125 C 41.558594 14.8125 40.683594 8.910156 35.859375 8.890625 L 30.472656 8.890625 L 30.472656 21.375 L 31.972656 21.375 L 33.613281 17.703125 L 35.246094 17.703125 L 37.351562 21.375 L 40.859375 21.375 L 40.859375 20.914062 Z M 68.5 14.277344 L 63.695312 8.855469 L 62.535156 8.855469 L 62.535156 21.375 L 65.746094 21.375 L 65.746094 15.8125 L 68.34375 18.59375 L 68.695312 18.59375 L 71.308594 15.8125 L 71.308594 21.375 L 74.519531 21.375 L 74.519531 8.855469 L 73.394531 8.855469 Z M 68.5 14.277344 " fill-opacity="1" fill-rule="nonzero"/></g></svg>